<svg width="838" height="21" viewBox="0 0 838 21" fill="none" xmlns="http://www.w3.org/2000/svg">
<g clip-path="url(#clip0_1_313)">
<path d="M11.3333 9.16665H12.6667C14 9.16665 14.6667 8.49998 14.6667 7.16665V5.83331C14.6667 4.49998 14 3.83331 12.6667 3.83331H11.3333C10 3.83331 9.33334 4.49998 9.33334 5.83331V7.16665C9.33334 8.49998 10 9.16665 11.3333 9.16665Z" stroke="#0062FF" stroke-width="1.5" stroke-miterlimit="10" stroke-linecap="round" stroke-linejoin="round"/>
<path d="M3.33334 17.1666H4.66668C6.00001 17.1666 6.66668 16.5 6.66668 15.1666V13.8333C6.66668 12.5 6.00001 11.8333 4.66668 11.8333H3.33334C2.00001 11.8333 1.33334 12.5 1.33334 13.8333V15.1666C1.33334 16.5 2.00001 17.1666 3.33334 17.1666Z" stroke="#0062FF" stroke-width="1.5" stroke-miterlimit="10" stroke-linecap="round" stroke-linejoin="round"/>
<path d="M4.00001 9.16665C5.47277 9.16665 6.66668 7.97274 6.66668 6.49998C6.66668 5.02722 5.47277 3.83331 4.00001 3.83331C2.52725 3.83331 1.33334 5.02722 1.33334 6.49998C1.33334 7.97274 2.52725 9.16665 4.00001 9.16665Z" stroke="#0062FF" stroke-width="1.5" stroke-miterlimit="10" stroke-linecap="round" stroke-linejoin="round"/>
<path d="M12 17.1666C13.4728 17.1666 14.6667 15.9727 14.6667 14.5C14.6667 13.0272 13.4728 11.8333 12 11.8333C10.5273 11.8333 9.33334 13.0272 9.33334 14.5C9.33334 15.9727 10.5273 17.1666 12 17.1666Z" stroke="#0062FF" stroke-width="1.5" stroke-miterlimit="10" stroke-linecap="round" stroke-linejoin="round"/>
<path d="M30.958 13.138H27.066L26.422 15H24.364L27.878 5.214H30.16L33.674 15H31.602L30.958 13.138ZM30.426 11.57L29.012 7.482L27.598 11.57H30.426ZM38.0555 15.126C37.4208 15.126 36.8515 15.014 36.3475 14.79C35.8435 14.5567 35.4422 14.244 35.1435 13.852C34.8542 13.46 34.6955 13.026 34.6675 12.55H36.6415C36.6788 12.8487 36.8235 13.096 37.0755 13.292C37.3368 13.488 37.6588 13.586 38.0415 13.586C38.4148 13.586 38.7042 13.5113 38.9095 13.362C39.1242 13.2127 39.2315 13.0213 39.2315 12.788C39.2315 12.536 39.1008 12.3493 38.8395 12.228C38.5875 12.0973 38.1815 11.9573 37.6215 11.808C37.0428 11.668 36.5668 11.5233 36.1935 11.374C35.8295 11.2247 35.5122 10.996 35.2415 10.688C34.9802 10.38 34.8495 9.96467 34.8495 9.442C34.8495 9.01267 34.9708 8.62067 35.2135 8.266C35.4655 7.91133 35.8202 7.63133 36.2775 7.426C36.7442 7.22067 37.2902 7.118 37.9155 7.118C38.8395 7.118 39.5768 7.35133 40.1275 7.818C40.6782 8.27533 40.9815 8.896 41.0375 9.68H39.1615C39.1335 9.372 39.0028 9.12933 38.7695 8.952C38.5455 8.76533 38.2422 8.672 37.8595 8.672C37.5048 8.672 37.2295 8.73733 37.0335 8.868C36.8468 8.99867 36.7535 9.18067 36.7535 9.414C36.7535 9.67533 36.8842 9.876 37.1455 10.016C37.4068 10.1467 37.8128 10.282 38.3635 10.422C38.9235 10.562 39.3855 10.7067 39.7495 10.856C40.1135 11.0053 40.4262 11.2387 40.6875 11.556C40.9582 11.864 41.0982 12.2747 41.1075 12.788C41.1075 13.236 40.9815 13.6373 40.7295 13.992C40.4868 14.3467 40.1322 14.6267 39.6655 14.832C39.2082 15.028 38.6715 15.126 38.0555 15.126ZM46.2604 15.126C45.5137 15.126 44.8417 14.9627 44.2444 14.636C43.6471 14.3 43.1757 13.8287 42.8304 13.222C42.4944 12.6153 42.3264 11.9153 42.3264 11.122C42.3264 10.3287 42.4991 9.62867 42.8444 9.022C43.1991 8.41533 43.6797 7.94867 44.2864 7.622C44.8931 7.286 45.5697 7.118 46.3164 7.118C47.0631 7.118 47.7397 7.286 48.3464 7.622C48.9531 7.94867 49.4291 8.41533 49.7744 9.022C50.1291 9.62867 50.3064 10.3287 50.3064 11.122C50.3064 11.9153 50.1244 12.6153 49.7604 13.222C49.4057 13.8287 48.9204 14.3 48.3044 14.636C47.6977 14.9627 47.0164 15.126 46.2604 15.126ZM46.2604 13.418C46.6151 13.418 46.9464 13.334 47.2544 13.166C47.5717 12.9887 47.8237 12.7273 48.0104 12.382C48.1971 12.0367 48.2904 11.6167 48.2904 11.122C48.2904 10.3847 48.0944 9.82 47.7024 9.428C47.3197 9.02667 46.8484 8.826 46.2884 8.826C45.7284 8.826 45.2571 9.02667 44.8744 9.428C44.5011 9.82 44.3144 10.3847 44.3144 11.122C44.3144 11.8593 44.4964 12.4287 44.8604 12.83C45.2337 13.222 45.7004 13.418 46.2604 13.418ZM54.8121 15.126C54.1775 15.126 53.6081 15.014 53.1041 14.79C52.6001 14.5567 52.1988 14.244 51.9001 13.852C51.6108 13.46 51.4521 13.026 51.4241 12.55H53.3981C53.4355 12.8487 53.5801 13.096 53.8321 13.292C54.0935 13.488 54.4155 13.586 54.7981 13.586C55.1715 13.586 55.4608 13.5113 55.6661 13.362C55.8808 13.2127 55.9881 13.0213 55.9881 12.788C55.9881 12.536 55.8575 12.3493 55.5961 12.228C55.3441 12.0973 54.9381 11.9573 54.3781 11.808C53.7995 11.668 53.3235 11.5233 52.9501 11.374C52.5861 11.2247 52.2688 10.996 51.9981 10.688C51.7368 10.38 51.6061 9.96467 51.6061 9.442C51.6061 9.01267 51.7275 8.62067 51.9701 8.266C52.2221 7.91133 52.5768 7.63133 53.0341 7.426C53.5008 7.22067 54.0468 7.118 54.6721 7.118C55.5961 7.118 56.3335 7.35133 56.8841 7.818C57.4348 8.27533 57.7381 8.896 57.7941 9.68H55.9181C55.8901 9.372 55.7595 9.12933 55.5261 8.952C55.3021 8.76533 54.9988 8.672 54.6161 8.672C54.2615 8.672 53.9861 8.73733 53.7901 8.868C53.6035 8.99867 53.5101 9.18067 53.5101 9.414C53.5101 9.67533 53.6408 9.876 53.9021 10.016C54.1635 10.1467 54.5695 10.282 55.1201 10.422C55.6801 10.562 56.1421 10.7067 56.5061 10.856C56.8701 11.0053 57.1828 11.2387 57.4441 11.556C57.7148 11.864 57.8548 12.2747 57.8641 12.788C57.8641 13.236 57.7381 13.6373 57.4861 13.992C57.2435 14.3467 56.8888 14.6267 56.4221 14.832C55.9648 15.028 55.4281 15.126 54.8121 15.126ZM60.567 6.32C60.2217 6.32 59.9324 6.21267 59.699 5.998C59.475 5.774 59.363 5.49867 59.363 5.172C59.363 4.84533 59.475 4.57467 59.699 4.36C59.9324 4.136 60.2217 4.024 60.567 4.024C60.9124 4.024 61.197 4.136 61.421 4.36C61.6544 4.57467 61.771 4.84533 61.771 5.172C61.771 5.49867 61.6544 5.774 61.421 5.998C61.197 6.21267 60.9124 6.32 60.567 6.32ZM61.533 7.244V15H59.573V7.244H61.533ZM70.9895 7.244L66.1875 18.668H64.1015L65.7815 14.804L62.6735 7.244H64.8715L66.8735 12.662L68.9035 7.244H70.9895Z" fill="#0062FF"/>
</g>
<g clip-path="url(#clip1_1_313)">
<path d="M116.107 9.74665C116.04 9.73998 115.96 9.73998 115.887 9.74665C114.3 9.69331 113.04 8.39331 113.04 6.79331C113.04 5.15998 114.36 3.83331 116 3.83331C117.633 3.83331 118.96 5.15998 118.96 6.79331C118.953 8.39331 117.693 9.69331 116.107 9.74665Z" stroke="#92929D" stroke-width="1.5" stroke-linecap="round" stroke-linejoin="round"/>
<path d="M112.773 12.2067C111.16 13.2867 111.16 15.0467 112.773 16.12C114.607 17.3467 117.613 17.3467 119.447 16.12C121.06 15.04 121.06 13.28 119.447 12.2067C117.62 10.9867 114.613 10.9867 112.773 12.2067Z" stroke="#92929D" stroke-width="1.5" stroke-linecap="round" stroke-linejoin="round"/>
<path d="M143.62 5.228V15H141.66V8.644L139.042 15H137.558L134.926 8.644V15H132.966V5.228H135.192L138.3 12.494L141.408 5.228H143.62ZM146.652 6.32C146.306 6.32 146.017 6.21267 145.784 5.998C145.56 5.774 145.448 5.49867 145.448 5.172C145.448 4.84533 145.56 4.57467 145.784 4.36C146.017 4.136 146.306 4.024 146.652 4.024C146.997 4.024 147.282 4.136 147.506 4.36C147.739 4.57467 147.856 4.84533 147.856 5.172C147.856 5.49867 147.739 5.774 147.506 5.998C147.282 6.21267 146.997 6.32 146.652 6.32ZM147.618 7.244V15H145.658V7.244H147.618ZM150.648 6.32C150.294 6.32 150 6.21267 149.766 5.998C149.542 5.774 149.43 5.49867 149.43 5.172C149.43 4.84533 149.542 4.57467 149.766 4.36C150 4.136 150.294 4.024 150.648 4.024C150.994 4.024 151.278 4.136 151.502 4.36C151.726 4.57467 151.838 4.84533 151.838 5.172C151.838 5.49867 151.726 5.774 151.502 5.998C151.278 6.21267 150.994 6.32 150.648 6.32ZM151.614 16.274C151.614 17.1327 151.4 17.7487 150.97 18.122C150.55 18.5047 149.944 18.696 149.15 18.696H148.282V17.03H148.842C149.141 17.03 149.351 16.9693 149.472 16.848C149.594 16.736 149.654 16.5493 149.654 16.288V7.244H151.614V16.274ZM157.095 15.126C156.348 15.126 155.676 14.9627 155.079 14.636C154.481 14.3 154.01 13.8287 153.665 13.222C153.329 12.6153 153.161 11.9153 153.161 11.122C153.161 10.3287 153.333 9.62867 153.679 9.022C154.033 8.41533 154.514 7.94867 155.121 7.622C155.727 7.286 156.404 7.118 157.151 7.118C157.897 7.118 158.574 7.286 159.181 7.622C159.787 7.94867 160.263 8.41533 160.609 9.022C160.963 9.62867 161.141 10.3287 161.141 11.122C161.141 11.9153 160.959 12.6153 160.595 13.222C160.24 13.8287 159.755 14.3 159.139 14.636C158.532 14.9627 157.851 15.126 157.095 15.126ZM157.095 13.418C157.449 13.418 157.781 13.334 158.089 13.166C158.406 12.9887 158.658 12.7273 158.845 12.382C159.031 12.0367 159.125 11.6167 159.125 11.122C159.125 10.3847 158.929 9.82 158.537 9.428C158.154 9.02667 157.683 8.826 157.123 8.826C156.563 8.826 156.091 9.02667 155.709 9.428C155.335 9.82 155.149 10.3847 155.149 11.122C155.149 11.8593 155.331 12.4287 155.695 12.83C156.068 13.222 156.535 13.418 157.095 13.418ZM164.47 13.39H167.929V15H162.244V13.418L165.632 8.854H162.258V7.244H167.886V8.826L164.47 13.39ZM171.506 4.64V15H169.546V4.64H171.506ZM173.039 11.094C173.039 10.31 173.193 9.61467 173.501 9.008C173.818 8.40133 174.243 7.93467 174.775 7.608C175.316 7.28133 175.918 7.118 176.581 7.118C177.159 7.118 177.663 7.23467 178.093 7.468C178.531 7.70133 178.881 7.99533 179.143 8.35V7.244H181.117V15H179.143V13.866C178.891 14.23 178.541 14.5333 178.093 14.776C177.654 15.0093 177.145 15.126 176.567 15.126C175.913 15.126 175.316 14.958 174.775 14.622C174.243 14.286 173.818 13.8147 173.501 13.208C173.193 12.592 173.039 11.8873 173.039 11.094ZM179.143 11.122C179.143 10.646 179.049 10.24 178.863 9.904C178.676 9.55867 178.424 9.29733 178.107 9.12C177.789 8.93333 177.449 8.84 177.085 8.84C176.721 8.84 176.385 8.92867 176.077 9.106C175.769 9.28333 175.517 9.54467 175.321 9.89C175.134 10.226 175.041 10.6273 175.041 11.094C175.041 11.5607 175.134 11.9713 175.321 12.326C175.517 12.6713 175.769 12.9373 176.077 13.124C176.394 13.3107 176.73 13.404 177.085 13.404C177.449 13.404 177.789 13.3153 178.107 13.138C178.424 12.9513 178.676 12.69 178.863 12.354C179.049 12.0087 179.143 11.598 179.143 11.122ZM185.091 8.448C185.343 8.03733 185.67 7.71533 186.071 7.482C186.482 7.24867 186.948 7.132 187.471 7.132V9.19H186.953C186.337 9.19 185.87 9.33467 185.553 9.624C185.245 9.91333 185.091 10.4173 185.091 11.136V15H183.131V7.244H185.091V8.448ZM194.287 8.378C194.539 8.00467 194.884 7.70133 195.323 7.468C195.771 7.23467 196.28 7.118 196.849 7.118C197.512 7.118 198.109 7.28133 198.641 7.608C199.182 7.93467 199.607 8.40133 199.915 9.008C200.232 9.60533 200.391 10.3007 200.391 11.094C200.391 11.8873 200.232 12.592 199.915 13.208C199.607 13.8147 199.182 14.286 198.641 14.622C198.109 14.958 197.512 15.126 196.849 15.126C196.27 15.126 195.762 15.014 195.323 14.79C194.894 14.5567 194.548 14.258 194.287 13.894V15H192.327V4.64H194.287V8.378ZM198.389 11.094C198.389 10.6273 198.291 10.226 198.095 9.89C197.908 9.54467 197.656 9.28333 197.339 9.106C197.031 8.92867 196.695 8.84 196.331 8.84C195.976 8.84 195.64 8.93333 195.323 9.12C195.015 9.29733 194.763 9.55867 194.567 9.904C194.38 10.2493 194.287 10.6553 194.287 11.122C194.287 11.5887 194.38 11.9947 194.567 12.34C194.763 12.6853 195.015 12.9513 195.323 13.138C195.64 13.3153 195.976 13.404 196.331 13.404C196.695 13.404 197.031 13.3107 197.339 13.124C197.656 12.9373 197.908 12.6713 198.095 12.326C198.291 11.9807 198.389 11.57 198.389 11.094ZM201.411 11.094C201.411 10.31 201.565 9.61467 201.873 9.008C202.191 8.40133 202.615 7.93467 203.147 7.608C203.689 7.28133 204.291 7.118 204.953 7.118C205.532 7.118 206.036 7.23467 206.465 7.468C206.904 7.70133 207.254 7.99533 207.515 8.35V7.244H209.489V15H207.515V13.866C207.263 14.23 206.913 14.5333 206.465 14.776C206.027 15.0093 205.518 15.126 204.939 15.126C204.286 15.126 203.689 14.958 203.147 14.622C202.615 14.286 202.191 13.8147 201.873 13.208C201.565 12.592 201.411 11.8873 201.411 11.094ZM207.515 11.122C207.515 10.646 207.422 10.24 207.235 9.904C207.049 9.55867 206.797 9.29733 206.479 9.12C206.162 8.93333 205.821 8.84 205.457 8.84C205.093 8.84 204.757 8.92867 204.449 9.106C204.141 9.28333 203.889 9.54467 203.693 9.89C203.507 10.226 203.413 10.6273 203.413 11.094C203.413 11.5607 203.507 11.9713 203.693 12.326C203.889 12.6713 204.141 12.9373 204.449 13.124C204.767 13.3107 205.103 13.404 205.457 13.404C205.821 13.404 206.162 13.3153 206.479 13.138C206.797 12.9513 207.049 12.69 207.235 12.354C207.422 12.0087 207.515 11.598 207.515 11.122ZM213.295 13.39H216.753V15H211.069V13.418L214.457 8.854H211.083V7.244H216.711V8.826L213.295 13.39ZM217.867 11.094C217.867 10.31 218.021 9.61467 218.329 9.008C218.646 8.40133 219.071 7.93467 219.603 7.608C220.144 7.28133 220.746 7.118 221.409 7.118C221.988 7.118 222.492 7.23467 222.921 7.468C223.36 7.70133 223.71 7.99533 223.971 8.35V7.244H225.945V15H223.971V13.866C223.719 14.23 223.369 14.5333 222.921 14.776C222.482 15.0093 221.974 15.126 221.395 15.126C220.742 15.126 220.144 14.958 219.603 14.622C219.071 14.286 218.646 13.8147 218.329 13.208C218.021 12.592 217.867 11.8873 217.867 11.094ZM223.971 11.122C223.971 10.646 223.878 10.24 223.691 9.904C223.504 9.55867 223.252 9.29733 222.935 9.12C222.618 8.93333 222.277 8.84 221.913 8.84C221.549 8.84 221.213 8.92867 220.905 9.106C220.597 9.28333 220.345 9.54467 220.149 9.89C219.962 10.226 219.869 10.6273 219.869 11.094C219.869 11.5607 219.962 11.9713 220.149 12.326C220.345 12.6713 220.597 12.9373 220.905 13.124C221.222 13.3107 221.558 13.404 221.913 13.404C222.277 13.404 222.618 13.3153 222.935 13.138C223.252 12.9513 223.504 12.69 223.691 12.354C223.878 12.0087 223.971 11.598 223.971 11.122ZM230.927 15.126C230.293 15.126 229.723 15.014 229.219 14.79C228.715 14.5567 228.314 14.244 228.015 13.852C227.726 13.46 227.567 13.026 227.539 12.55H229.513C229.551 12.8487 229.695 13.096 229.947 13.292C230.209 13.488 230.531 13.586 230.913 13.586C231.287 13.586 231.576 13.5113 231.781 13.362C231.996 13.2127 232.103 13.0213 232.103 12.788C232.103 12.536 231.973 12.3493 231.711 12.228C231.459 12.0973 231.053 11.9573 230.493 11.808C229.915 11.668 229.439 11.5233 229.065 11.374C228.701 11.2247 228.384 10.996 228.113 10.688C227.852 10.38 227.721 9.96467 227.721 9.442C227.721 9.01267 227.843 8.62067 228.085 8.266C228.337 7.91133 228.692 7.63133 229.149 7.426C229.616 7.22067 230.162 7.118 230.787 7.118C231.711 7.118 232.449 7.35133 232.999 7.818C233.55 8.27533 233.853 8.896 233.909 9.68H232.033C232.005 9.372 231.875 9.12933 231.641 8.952C231.417 8.76533 231.114 8.672 230.731 8.672C230.377 8.672 230.101 8.73733 229.905 8.868C229.719 8.99867 229.625 9.18067 229.625 9.414C229.625 9.67533 229.756 9.876 230.017 10.016C230.279 10.1467 230.685 10.282 231.235 10.422C231.795 10.562 232.257 10.7067 232.621 10.856C232.985 11.0053 233.298 11.2387 233.559 11.556C233.83 11.864 233.97 12.2747 233.979 12.788C233.979 13.236 233.853 13.6373 233.601 13.992C233.359 14.3467 233.004 14.6267 232.537 14.832C232.08 15.028 231.543 15.126 230.927 15.126ZM236.682 6.32C236.337 6.32 236.048 6.21267 235.814 5.998C235.59 5.774 235.478 5.49867 235.478 5.172C235.478 4.84533 235.59 4.57467 235.814 4.36C236.048 4.136 236.337 4.024 236.682 4.024C237.028 4.024 237.312 4.136 237.536 4.36C237.77 4.57467 237.886 4.84533 237.886 5.172C237.886 5.49867 237.77 5.774 237.536 5.998C237.312 6.21267 237.028 6.32 236.682 6.32ZM237.648 7.244V15H235.688V7.244H237.648Z" fill="#92929D"/>
</g>
<g clip-path="url(#clip2_1_313)">
<path d="M276.333 8.16665C276.333 5.83331 277.667 4.83331 279.667 4.83331H286.333C288.333 4.83331 289.667 5.83331 289.667 8.16665V12.8333C289.667 15.1666 288.333 16.1666 286.333 16.1666H279.667" stroke="#92929D" stroke-width="1.5" stroke-miterlimit="10" stroke-linecap="round" stroke-linejoin="round"/>
<path d="M286.333 8.5L284.247 10.1667C283.56 10.7133 282.433 10.7133 281.747 10.1667L279.667 8.5" stroke="#92929D" stroke-width="1.5" stroke-miterlimit="10" stroke-linecap="round" stroke-linejoin="round"/>
<path d="M276.333 13.5H280.333" stroke="#92929D" stroke-width="1.5" stroke-miterlimit="10" stroke-linecap="round" stroke-linejoin="round"/>
<path d="M276.333 10.8333H278.333" stroke="#92929D" stroke-width="1.5" stroke-miterlimit="10" stroke-linecap="round" stroke-linejoin="round"/>
<path d="M306.616 5.228V6.81H304.012V15H302.052V6.81H299.448V5.228H306.616ZM310.106 8.448C310.358 8.03733 310.685 7.71533 311.086 7.482C311.497 7.24867 311.963 7.132 312.486 7.132V9.19H311.968C311.352 9.19 310.885 9.33467 310.568 9.624C310.26 9.91333 310.106 10.4173 310.106 11.136V15H308.146V7.244H310.106V8.448ZM313.402 11.094C313.402 10.31 313.556 9.61467 313.864 9.008C314.182 8.40133 314.606 7.93467 315.138 7.608C315.68 7.28133 316.282 7.118 316.944 7.118C317.523 7.118 318.027 7.23467 318.456 7.468C318.895 7.70133 319.245 7.99533 319.506 8.35V7.244H321.48V15H319.506V13.866C319.254 14.23 318.904 14.5333 318.456 14.776C318.018 15.0093 317.509 15.126 316.93 15.126C316.277 15.126 315.68 14.958 315.138 14.622C314.606 14.286 314.182 13.8147 313.864 13.208C313.556 12.592 313.402 11.8873 313.402 11.094ZM319.506 11.122C319.506 10.646 319.413 10.24 319.226 9.904C319.04 9.55867 318.788 9.29733 318.47 9.12C318.153 8.93333 317.812 8.84 317.448 8.84C317.084 8.84 316.748 8.92867 316.44 9.106C316.132 9.28333 315.88 9.54467 315.684 9.89C315.498 10.226 315.404 10.6273 315.404 11.094C315.404 11.5607 315.498 11.9713 315.684 12.326C315.88 12.6713 316.132 12.9373 316.44 13.124C316.758 13.3107 317.094 13.404 317.448 13.404C317.812 13.404 318.153 13.3153 318.47 13.138C318.788 12.9513 319.04 12.69 319.226 12.354C319.413 12.0087 319.506 11.598 319.506 11.122ZM322.991 11.122C322.991 10.3193 323.154 9.61933 323.481 9.022C323.807 8.41533 324.26 7.94867 324.839 7.622C325.417 7.286 326.08 7.118 326.827 7.118C327.788 7.118 328.581 7.36067 329.207 7.846C329.841 8.322 330.266 8.994 330.481 9.862H328.367C328.255 9.526 328.063 9.26467 327.793 9.078C327.531 8.882 327.205 8.784 326.813 8.784C326.253 8.784 325.809 8.98933 325.483 9.4C325.156 9.80133 324.993 10.3753 324.993 11.122C324.993 11.8593 325.156 12.4333 325.483 12.844C325.809 13.2453 326.253 13.446 326.813 13.446C327.606 13.446 328.124 13.0913 328.367 12.382H330.481C330.266 13.222 329.841 13.8893 329.207 14.384C328.572 14.8787 327.779 15.126 326.827 15.126C326.08 15.126 325.417 14.9627 324.839 14.636C324.26 14.3 323.807 13.8333 323.481 13.236C323.154 12.6293 322.991 11.9247 322.991 11.122ZM336.608 15L333.976 11.696V15H332.016V4.64H333.976V10.534L336.58 7.244H339.128L335.712 11.136L339.156 15H336.608ZM341.286 6.32C340.941 6.32 340.652 6.21267 340.418 5.998C340.194 5.774 340.082 5.49867 340.082 5.172C340.082 4.84533 340.194 4.57467 340.418 4.36C340.652 4.136 340.941 4.024 341.286 4.024C341.632 4.024 341.916 4.136 342.14 4.36C342.374 4.57467 342.49 4.84533 342.49 5.172C342.49 5.49867 342.374 5.774 342.14 5.998C341.916 6.21267 341.632 6.32 341.286 6.32ZM342.252 7.244V15H340.292V7.244H342.252ZM348.587 7.132C349.511 7.132 350.257 7.426 350.827 8.014C351.396 8.59267 351.681 9.40467 351.681 10.45V15H349.721V10.716C349.721 10.1 349.567 9.62867 349.259 9.302C348.951 8.966 348.531 8.798 347.999 8.798C347.457 8.798 347.028 8.966 346.711 9.302C346.403 9.62867 346.249 10.1 346.249 10.716V15H344.289V7.244H346.249V8.21C346.51 7.874 346.841 7.61267 347.243 7.426C347.653 7.23 348.101 7.132 348.587 7.132ZM356.683 7.118C357.261 7.118 357.77 7.23467 358.209 7.468C358.647 7.692 358.993 7.986 359.245 8.35V7.244H361.219V15.056C361.219 15.7747 361.074 16.414 360.785 16.974C360.495 17.5433 360.061 17.9913 359.483 18.318C358.904 18.654 358.204 18.822 357.383 18.822C356.281 18.822 355.376 18.5653 354.667 18.052C353.967 17.5387 353.57 16.8387 353.477 15.952H355.423C355.525 16.3067 355.745 16.5867 356.081 16.792C356.426 17.0067 356.841 17.114 357.327 17.114C357.896 17.114 358.358 16.9413 358.713 16.596C359.067 16.26 359.245 15.7467 359.245 15.056V13.852C358.993 14.216 358.643 14.5193 358.195 14.762C357.756 15.0047 357.252 15.126 356.683 15.126C356.029 15.126 355.432 14.958 354.891 14.622C354.349 14.286 353.92 13.8147 353.603 13.208C353.295 12.592 353.141 11.8873 353.141 11.094C353.141 10.31 353.295 9.61467 353.603 9.008C353.92 8.40133 354.345 7.93467 354.877 7.608C355.418 7.28133 356.02 7.118 356.683 7.118ZM359.245 11.122C359.245 10.646 359.151 10.24 358.965 9.904C358.778 9.55867 358.526 9.29733 358.209 9.12C357.891 8.93333 357.551 8.84 357.187 8.84C356.823 8.84 356.487 8.92867 356.179 9.106C355.871 9.28333 355.619 9.54467 355.423 9.89C355.236 10.226 355.143 10.6273 355.143 11.094C355.143 11.5607 355.236 11.9713 355.423 12.326C355.619 12.6713 355.871 12.9373 356.179 13.124C356.496 13.3107 356.832 13.404 357.187 13.404C357.551 13.404 357.891 13.3153 358.209 13.138C358.526 12.9513 358.778 12.69 358.965 12.354C359.151 12.0087 359.245 11.598 359.245 11.122ZM368.629 4.64V15H366.669V4.64H368.629ZM374.109 15.126C373.363 15.126 372.691 14.9627 372.093 14.636C371.496 14.3 371.025 13.8287 370.679 13.222C370.343 12.6153 370.175 11.9153 370.175 11.122C370.175 10.3287 370.348 9.62867 370.693 9.022C371.048 8.41533 371.529 7.94867 372.135 7.622C372.742 7.286 373.419 7.118 374.165 7.118C374.912 7.118 375.589 7.286 376.195 7.622C376.802 7.94867 377.278 8.41533 377.623 9.022C377.978 9.62867 378.155 10.3287 378.155 11.122C378.155 11.9153 377.973 12.6153 377.609 13.222C377.255 13.8287 376.769 14.3 376.153 14.636C375.547 14.9627 374.865 15.126 374.109 15.126ZM374.109 13.418C374.464 13.418 374.795 13.334 375.103 13.166C375.421 12.9887 375.673 12.7273 375.859 12.382C376.046 12.0367 376.139 11.6167 376.139 11.122C376.139 10.3847 375.943 9.82 375.551 9.428C375.169 9.02667 374.697 8.826 374.137 8.826C373.577 8.826 373.106 9.02667 372.723 9.428C372.35 9.82 372.163 10.3847 372.163 11.122C372.163 11.8593 372.345 12.4287 372.709 12.83C373.083 13.222 373.549 13.418 374.109 13.418ZM387.113 7.244L382.311 18.668H380.225L381.905 14.804L378.797 7.244H380.995L382.997 12.662L385.027 7.244H387.113ZM389.264 6.32C388.918 6.32 388.629 6.21267 388.396 5.998C388.172 5.774 388.06 5.49867 388.06 5.172C388.06 4.84533 388.172 4.57467 388.396 4.36C388.629 4.136 388.918 4.024 389.264 4.024C389.609 4.024 389.894 4.136 390.118 4.36C390.351 4.57467 390.468 4.84533 390.468 5.172C390.468 5.49867 390.351 5.774 390.118 5.998C389.894 6.21267 389.609 6.32 389.264 6.32ZM390.23 7.244V15H388.27V7.244H390.23ZM396.634 7.132C397.222 7.132 397.745 7.26267 398.202 7.524C398.659 7.776 399.014 8.154 399.266 8.658C399.527 9.15267 399.658 9.75 399.658 10.45V15H397.698V10.716C397.698 10.1 397.544 9.62867 397.236 9.302C396.928 8.966 396.508 8.798 395.976 8.798C395.435 8.798 395.005 8.966 394.688 9.302C394.38 9.62867 394.226 10.1 394.226 10.716V15H392.266V4.64H394.226V8.21C394.478 7.874 394.814 7.61267 395.234 7.426C395.654 7.23 396.121 7.132 396.634 7.132ZM401.118 11.094C401.118 10.31 401.272 9.61467 401.58 9.008C401.897 8.40133 402.322 7.93467 402.854 7.608C403.395 7.28133 403.997 7.118 404.66 7.118C405.239 7.118 405.743 7.23467 406.172 7.468C406.611 7.70133 406.961 7.99533 407.222 8.35V7.244H409.196V15H407.222V13.866C406.97 14.23 406.62 14.5333 406.172 14.776C405.733 15.0093 405.225 15.126 404.646 15.126C403.993 15.126 403.395 14.958 402.854 14.622C402.322 14.286 401.897 13.8147 401.58 13.208C401.272 12.592 401.118 11.8873 401.118 11.094ZM407.222 11.122C407.222 10.646 407.129 10.24 406.942 9.904C406.755 9.55867 406.503 9.29733 406.186 9.12C405.869 8.93333 405.528 8.84 405.164 8.84C404.8 8.84 404.464 8.92867 404.156 9.106C403.848 9.28333 403.596 9.54467 403.4 9.89C403.213 10.226 403.12 10.6273 403.12 11.094C403.12 11.5607 403.213 11.9713 403.4 12.326C403.596 12.6713 403.848 12.9373 404.156 13.124C404.473 13.3107 404.809 13.404 405.164 13.404C405.528 13.404 405.869 13.3153 406.186 13.138C406.503 12.9513 406.755 12.69 406.942 12.354C407.129 12.0087 407.222 11.598 407.222 11.122ZM413.17 4.64V15H411.21V4.64H413.17ZM414.703 11.094C414.703 10.31 414.857 9.61467 415.165 9.008C415.482 8.40133 415.907 7.93467 416.439 7.608C416.98 7.28133 417.582 7.118 418.245 7.118C418.823 7.118 419.327 7.23467 419.757 7.468C420.195 7.70133 420.545 7.99533 420.807 8.35V7.244H422.781V15H420.807V13.866C420.555 14.23 420.205 14.5333 419.757 14.776C419.318 15.0093 418.809 15.126 418.231 15.126C417.577 15.126 416.98 14.958 416.439 14.622C415.907 14.286 415.482 13.8147 415.165 13.208C414.857 12.592 414.703 11.8873 414.703 11.094ZM420.807 11.122C420.807 10.646 420.713 10.24 420.527 9.904C420.34 9.55867 420.088 9.29733 419.771 9.12C419.453 8.93333 419.113 8.84 418.749 8.84C418.385 8.84 418.049 8.92867 417.741 9.106C417.433 9.28333 417.181 9.54467 416.985 9.89C416.798 10.226 416.705 10.6273 416.705 11.094C416.705 11.5607 416.798 11.9713 416.985 12.326C417.181 12.6713 417.433 12.9373 417.741 13.124C418.058 13.3107 418.394 13.404 418.749 13.404C419.113 13.404 419.453 13.3153 419.771 13.138C420.088 12.9513 420.34 12.69 420.527 12.354C420.713 12.0087 420.807 11.598 420.807 11.122ZM426.755 8.448C427.007 8.03733 427.334 7.71533 427.735 7.482C428.146 7.24867 428.612 7.132 429.135 7.132V9.19H428.617C428.001 9.19 427.534 9.33467 427.217 9.624C426.909 9.91333 426.755 10.4173 426.755 11.136V15H424.795V7.244H426.755V8.448ZM431.549 6.32C431.204 6.32 430.914 6.21267 430.681 5.998C430.457 5.774 430.345 5.49867 430.345 5.172C430.345 4.84533 430.457 4.57467 430.681 4.36C430.914 4.136 431.204 4.024 431.549 4.024C431.894 4.024 432.179 4.136 432.403 4.36C432.636 4.57467 432.753 4.84533 432.753 5.172C432.753 5.49867 432.636 5.774 432.403 5.998C432.179 6.21267 431.894 6.32 431.549 6.32ZM432.515 7.244V15H430.555V7.244H432.515Z" fill="#92929D"/>
</g>
<g clip-path="url(#clip3_1_313)">
<path d="M475.333 3.83331V5.83331" stroke="#92929D" stroke-width="1.5" stroke-miterlimit="10" stroke-linecap="round" stroke-linejoin="round"/>
<path d="M480.667 3.83331V5.83331" stroke="#92929D" stroke-width="1.5" stroke-miterlimit="10" stroke-linecap="round" stroke-linejoin="round"/>
<path d="M484 8.16665V13.8333C484 15.8333 483 17.1666 480.667 17.1666H475.333C473 17.1666 472 15.8333 472 13.8333V8.16665C472 6.16665 473 4.83331 475.333 4.83331H480.667C483 4.83331 484 6.16665 484 8.16665Z" stroke="#92929D" stroke-width="1.5" stroke-miterlimit="10" stroke-linecap="round" stroke-linejoin="round"/>
<path d="M475.333 9.83331H480.667" stroke="#92929D" stroke-width="1.5" stroke-miterlimit="10" stroke-linecap="round" stroke-linejoin="round"/>
<path d="M475.333 13.1667H478" stroke="#92929D" stroke-width="1.5" stroke-miterlimit="10" stroke-linecap="round" stroke-linejoin="round"/>
<path d="M498.34 15.098C497.659 15.098 497.043 14.9813 496.492 14.748C495.951 14.5147 495.521 14.1787 495.204 13.74C494.887 13.3013 494.723 12.7833 494.714 12.186H496.814C496.842 12.5873 496.982 12.9047 497.234 13.138C497.495 13.3713 497.85 13.488 498.298 13.488C498.755 13.488 499.115 13.3807 499.376 13.166C499.637 12.942 499.768 12.6527 499.768 12.298C499.768 12.0087 499.679 11.7707 499.502 11.584C499.325 11.3973 499.101 11.2527 498.83 11.15C498.569 11.038 498.205 10.9167 497.738 10.786C497.103 10.5993 496.585 10.4173 496.184 10.24C495.792 10.0533 495.451 9.778 495.162 9.414C494.882 9.04067 494.742 8.546 494.742 7.93C494.742 7.35133 494.887 6.84733 495.176 6.418C495.465 5.98867 495.871 5.662 496.394 5.438C496.917 5.20467 497.514 5.088 498.186 5.088C499.194 5.088 500.011 5.33533 500.636 5.83C501.271 6.31533 501.621 6.99667 501.686 7.874H499.53C499.511 7.538 499.367 7.26267 499.096 7.048C498.835 6.824 498.485 6.712 498.046 6.712C497.663 6.712 497.355 6.81 497.122 7.006C496.898 7.202 496.786 7.48667 496.786 7.86C496.786 8.12133 496.87 8.34067 497.038 8.518C497.215 8.686 497.43 8.826 497.682 8.938C497.943 9.04067 498.307 9.162 498.774 9.302C499.409 9.48867 499.927 9.67533 500.328 9.862C500.729 10.0487 501.075 10.3287 501.364 10.702C501.653 11.0753 501.798 11.5653 501.798 12.172C501.798 12.6947 501.663 13.18 501.392 13.628C501.121 14.076 500.725 14.4353 500.202 14.706C499.679 14.9673 499.059 15.098 498.34 15.098ZM507.965 7.132C508.553 7.132 509.076 7.26267 509.533 7.524C509.991 7.776 510.345 8.154 510.597 8.658C510.859 9.15267 510.989 9.75 510.989 10.45V15H509.029V10.716C509.029 10.1 508.875 9.62867 508.567 9.302C508.259 8.966 507.839 8.798 507.307 8.798C506.766 8.798 506.337 8.966 506.019 9.302C505.711 9.62867 505.557 10.1 505.557 10.716V15H503.597V4.64H505.557V8.21C505.809 7.874 506.145 7.61267 506.565 7.426C506.985 7.23 507.452 7.132 507.965 7.132ZM512.449 11.094C512.449 10.31 512.603 9.61467 512.911 9.008C513.228 8.40133 513.653 7.93467 514.185 7.608C514.726 7.28133 515.328 7.118 515.991 7.118C516.57 7.118 517.074 7.23467 517.503 7.468C517.942 7.70133 518.292 7.99533 518.553 8.35V7.244H520.527V15H518.553V13.866C518.301 14.23 517.951 14.5333 517.503 14.776C517.064 15.0093 516.556 15.126 515.977 15.126C515.324 15.126 514.726 14.958 514.185 14.622C513.653 14.286 513.228 13.8147 512.911 13.208C512.603 12.592 512.449 11.8873 512.449 11.094ZM518.553 11.122C518.553 10.646 518.46 10.24 518.273 9.904C518.086 9.55867 517.834 9.29733 517.517 9.12C517.2 8.93333 516.859 8.84 516.495 8.84C516.131 8.84 515.795 8.92867 515.487 9.106C515.179 9.28333 514.927 9.54467 514.731 9.89C514.544 10.226 514.451 10.6273 514.451 11.094C514.451 11.5607 514.544 11.9713 514.731 12.326C514.927 12.6713 515.179 12.9373 515.487 13.124C515.804 13.3107 516.14 13.404 516.495 13.404C516.859 13.404 517.2 13.3153 517.517 13.138C517.834 12.9513 518.086 12.69 518.273 12.354C518.46 12.0087 518.553 11.598 518.553 11.122ZM524.501 8.448C524.753 8.03733 525.08 7.71533 525.481 7.482C525.892 7.24867 526.359 7.132 526.881 7.132V9.19H526.363C525.747 9.19 525.281 9.33467 524.963 9.624C524.655 9.91333 524.501 10.4173 524.501 11.136V15H522.541V7.244H524.501V8.448ZM532.67 7.132C533.258 7.132 533.78 7.26267 534.238 7.524C534.695 7.776 535.05 8.154 535.302 8.658C535.563 9.15267 535.694 9.75 535.694 10.45V15H533.734V10.716C533.734 10.1 533.58 9.62867 533.272 9.302C532.964 8.966 532.544 8.798 532.012 8.798C531.47 8.798 531.041 8.966 530.724 9.302C530.416 9.62867 530.262 10.1 530.262 10.716V15H528.302V4.64H530.262V8.21C530.514 7.874 530.85 7.61267 531.27 7.426C531.69 7.23 532.156 7.132 532.67 7.132ZM544.537 15.126C543.791 15.126 543.119 14.9627 542.521 14.636C541.924 14.3 541.453 13.8287 541.107 13.222C540.771 12.6153 540.603 11.9153 540.603 11.122C540.603 10.3287 540.776 9.62867 541.121 9.022C541.476 8.41533 541.957 7.94867 542.563 7.622C543.17 7.286 543.847 7.118 544.593 7.118C545.34 7.118 546.017 7.286 546.623 7.622C547.23 7.94867 547.706 8.41533 548.051 9.022C548.406 9.62867 548.583 10.3287 548.583 11.122C548.583 11.9153 548.401 12.6153 548.037 13.222C547.683 13.8287 547.197 14.3 546.581 14.636C545.975 14.9627 545.293 15.126 544.537 15.126ZM544.537 13.418C544.892 13.418 545.223 13.334 545.531 13.166C545.849 12.9887 546.101 12.7273 546.287 12.382C546.474 12.0367 546.567 11.6167 546.567 11.122C546.567 10.3847 546.371 9.82 545.979 9.428C545.597 9.02667 545.125 8.826 544.565 8.826C544.005 8.826 543.534 9.02667 543.151 9.428C542.778 9.82 542.591 10.3847 542.591 11.122C542.591 11.8593 542.773 12.4287 543.137 12.83C543.511 13.222 543.977 13.418 544.537 13.418ZM552.081 4.64V15H550.121V4.64H552.081ZM555.112 6.32C554.766 6.32 554.477 6.21267 554.244 5.998C554.02 5.774 553.908 5.49867 553.908 5.172C553.908 4.84533 554.02 4.57467 554.244 4.36C554.477 4.136 554.766 4.024 555.112 4.024C555.457 4.024 555.742 4.136 555.966 4.36C556.199 4.57467 556.316 4.84533 556.316 5.172C556.316 5.49867 556.199 5.774 555.966 5.998C555.742 6.21267 555.457 6.32 555.112 6.32ZM556.078 7.244V15H554.118V7.244H556.078ZM561.082 15.126C560.447 15.126 559.878 15.014 559.374 14.79C558.87 14.5567 558.469 14.244 558.17 13.852C557.881 13.46 557.722 13.026 557.694 12.55H559.668C559.705 12.8487 559.85 13.096 560.102 13.292C560.363 13.488 560.685 13.586 561.068 13.586C561.441 13.586 561.731 13.5113 561.936 13.362C562.151 13.2127 562.258 13.0213 562.258 12.788C562.258 12.536 562.127 12.3493 561.866 12.228C561.614 12.0973 561.208 11.9573 560.648 11.808C560.069 11.668 559.593 11.5233 559.22 11.374C558.856 11.2247 558.539 10.996 558.268 10.688C558.007 10.38 557.876 9.96467 557.876 9.442C557.876 9.01267 557.997 8.62067 558.24 8.266C558.492 7.91133 558.847 7.63133 559.304 7.426C559.771 7.22067 560.317 7.118 560.942 7.118C561.866 7.118 562.603 7.35133 563.154 7.818C563.705 8.27533 564.008 8.896 564.064 9.68H562.188C562.16 9.372 562.029 9.12933 561.796 8.952C561.572 8.76533 561.269 8.672 560.886 8.672C560.531 8.672 560.256 8.73733 560.06 8.868C559.873 8.99867 559.78 9.18067 559.78 9.414C559.78 9.67533 559.911 9.876 560.172 10.016C560.433 10.1467 560.839 10.282 561.39 10.422C561.95 10.562 562.412 10.7067 562.776 10.856C563.14 11.0053 563.453 11.2387 563.714 11.556C563.985 11.864 564.125 12.2747 564.134 12.788C564.134 13.236 564.008 13.6373 563.756 13.992C563.513 14.3467 563.159 14.6267 562.692 14.832C562.235 15.028 561.698 15.126 561.082 15.126ZM570.211 7.132C570.799 7.132 571.322 7.26267 571.779 7.524C572.236 7.776 572.591 8.154 572.843 8.658C573.104 9.15267 573.235 9.75 573.235 10.45V15H571.275V10.716C571.275 10.1 571.121 9.62867 570.813 9.302C570.505 8.966 570.085 8.798 569.553 8.798C569.012 8.798 568.582 8.966 568.265 9.302C567.957 9.62867 567.803 10.1 567.803 10.716V15H565.843V4.64H567.803V8.21C568.055 7.874 568.391 7.61267 568.811 7.426C569.231 7.23 569.698 7.132 570.211 7.132ZM580.595 4.64V15H578.635V4.64H580.595ZM586.075 15.126C585.329 15.126 584.657 14.9627 584.059 14.636C583.462 14.3 582.991 13.8287 582.645 13.222C582.309 12.6153 582.141 11.9153 582.141 11.122C582.141 10.3287 582.314 9.62867 582.659 9.022C583.014 8.41533 583.495 7.94867 584.101 7.622C584.708 7.286 585.385 7.118 586.131 7.118C586.878 7.118 587.555 7.286 588.161 7.622C588.768 7.94867 589.244 8.41533 589.589 9.022C589.944 9.62867 590.121 10.3287 590.121 11.122C590.121 11.9153 589.939 12.6153 589.575 13.222C589.221 13.8287 588.735 14.3 588.119 14.636C587.513 14.9627 586.831 15.126 586.075 15.126ZM586.075 13.418C586.43 13.418 586.761 13.334 587.069 13.166C587.387 12.9887 587.639 12.7273 587.825 12.382C588.012 12.0367 588.105 11.6167 588.105 11.122C588.105 10.3847 587.909 9.82 587.517 9.428C587.135 9.02667 586.663 8.826 586.103 8.826C585.543 8.826 585.072 9.02667 584.689 9.428C584.316 9.82 584.129 10.3847 584.129 11.122C584.129 11.8593 584.311 12.4287 584.675 12.83C585.049 13.222 585.515 13.418 586.075 13.418ZM599.079 7.244L594.277 18.668H592.191L593.871 14.804L590.763 7.244H592.961L594.963 12.662L596.993 7.244H599.079ZM601.23 6.32C600.884 6.32 600.595 6.21267 600.362 5.998C600.138 5.774 600.026 5.49867 600.026 5.172C600.026 4.84533 600.138 4.57467 600.362 4.36C600.595 4.136 600.884 4.024 601.23 4.024C601.575 4.024 601.86 4.136 602.084 4.36C602.317 4.57467 602.434 4.84533 602.434 5.172C602.434 5.49867 602.317 5.774 602.084 5.998C601.86 6.21267 601.575 6.32 601.23 6.32ZM602.196 7.244V15H600.236V7.244H602.196ZM608.6 7.132C609.188 7.132 609.711 7.26267 610.168 7.524C610.625 7.776 610.98 8.154 611.232 8.658C611.493 9.15267 611.624 9.75 611.624 10.45V15H609.664V10.716C609.664 10.1 609.51 9.62867 609.202 9.302C608.894 8.966 608.474 8.798 607.942 8.798C607.401 8.798 606.971 8.966 606.654 9.302C606.346 9.62867 606.192 10.1 606.192 10.716V15H604.232V4.64H606.192V8.21C606.444 7.874 606.78 7.61267 607.2 7.426C607.62 7.23 608.087 7.132 608.6 7.132ZM613.084 11.094C613.084 10.31 613.238 9.61467 613.546 9.008C613.863 8.40133 614.288 7.93467 614.82 7.608C615.361 7.28133 615.963 7.118 616.626 7.118C617.205 7.118 617.709 7.23467 618.138 7.468C618.577 7.70133 618.927 7.99533 619.188 8.35V7.244H621.162V15H619.188V13.866C618.936 14.23 618.586 14.5333 618.138 14.776C617.699 15.0093 617.191 15.126 616.612 15.126C615.959 15.126 615.361 14.958 614.82 14.622C614.288 14.286 613.863 13.8147 613.546 13.208C613.238 12.592 613.084 11.8873 613.084 11.094ZM619.188 11.122C619.188 10.646 619.095 10.24 618.908 9.904C618.721 9.55867 618.469 9.29733 618.152 9.12C617.835 8.93333 617.494 8.84 617.13 8.84C616.766 8.84 616.43 8.92867 616.122 9.106C615.814 9.28333 615.562 9.54467 615.366 9.89C615.179 10.226 615.086 10.6273 615.086 11.094C615.086 11.5607 615.179 11.9713 615.366 12.326C615.562 12.6713 615.814 12.9373 616.122 13.124C616.439 13.3107 616.775 13.404 617.13 13.404C617.494 13.404 617.835 13.3153 618.152 13.138C618.469 12.9513 618.721 12.69 618.908 12.354C619.095 12.0087 619.188 11.598 619.188 11.122ZM625.136 4.64V15H623.176V4.64H625.136ZM626.669 11.094C626.669 10.31 626.823 9.61467 627.131 9.008C627.448 8.40133 627.873 7.93467 628.405 7.608C628.946 7.28133 629.548 7.118 630.211 7.118C630.789 7.118 631.293 7.23467 631.723 7.468C632.161 7.70133 632.511 7.99533 632.773 8.35V7.244H634.747V15H632.773V13.866C632.521 14.23 632.171 14.5333 631.723 14.776C631.284 15.0093 630.775 15.126 630.197 15.126C629.543 15.126 628.946 14.958 628.405 14.622C627.873 14.286 627.448 13.8147 627.131 13.208C626.823 12.592 626.669 11.8873 626.669 11.094ZM632.773 11.122C632.773 10.646 632.679 10.24 632.493 9.904C632.306 9.55867 632.054 9.29733 631.737 9.12C631.419 8.93333 631.079 8.84 630.715 8.84C630.351 8.84 630.015 8.92867 629.707 9.106C629.399 9.28333 629.147 9.54467 628.951 9.89C628.764 10.226 628.671 10.6273 628.671 11.094C628.671 11.5607 628.764 11.9713 628.951 12.326C629.147 12.6713 629.399 12.9373 629.707 13.124C630.024 13.3107 630.36 13.404 630.715 13.404C631.079 13.404 631.419 13.3153 631.737 13.138C632.054 12.9513 632.306 12.69 632.493 12.354C632.679 12.0087 632.773 11.598 632.773 11.122ZM638.721 8.448C638.973 8.03733 639.3 7.71533 639.701 7.482C640.112 7.24867 640.578 7.132 641.101 7.132V9.19H640.583C639.967 9.19 639.5 9.33467 639.183 9.624C638.875 9.91333 638.721 10.4173 638.721 11.136V15H636.761V7.244H638.721V8.448ZM643.515 6.32C643.17 6.32 642.88 6.21267 642.647 5.998C642.423 5.774 642.311 5.49867 642.311 5.172C642.311 4.84533 642.423 4.57467 642.647 4.36C642.88 4.136 643.17 4.024 643.515 4.024C643.86 4.024 644.145 4.136 644.369 4.36C644.602 4.57467 644.719 4.84533 644.719 5.172C644.719 5.49867 644.602 5.774 644.369 5.998C644.145 6.21267 643.86 6.32 643.515 6.32ZM644.481 7.244V15H642.521V7.244H644.481Z" fill="#92929D"/>
</g>
<g clip-path="url(#clip4_1_313)">
<path d="M690 8.49998V3.83331L688.667 5.16665" stroke="#92929D" stroke-width="1.5" stroke-linecap="round" stroke-linejoin="round"/>
<path d="M690 3.83331L691.333 5.16665" stroke="#92929D" stroke-width="1.5" stroke-linecap="round" stroke-linejoin="round"/>
<path d="M683.32 11.1667H686.26C686.513 11.1667 686.74 11.3067 686.853 11.5334L687.633 13.0934C687.86 13.5467 688.32 13.8334 688.827 13.8334H691.18C691.687 13.8334 692.147 13.5467 692.373 13.0934L693.153 11.5334C693.267 11.3067 693.5 11.1667 693.747 11.1667H696.653" stroke="#92929D" stroke-width="1.5" stroke-linecap="round" stroke-linejoin="round"/>
<path d="M686.667 5.91998C684.307 6.26665 683.333 7.65332 683.333 10.5V12.5C683.333 15.8333 684.667 17.1666 688 17.1666H692C695.333 17.1666 696.667 15.8333 696.667 12.5V10.5C696.667 7.65332 695.693 6.26665 693.333 5.91998" stroke="#92929D" stroke-width="1.5" stroke-linecap="round" stroke-linejoin="round"/>
<path d="M712.006 15L709.85 11.192H708.926V15H706.966V5.228H710.634C711.39 5.228 712.034 5.36333 712.566 5.634C713.098 5.89533 713.495 6.25467 713.756 6.712C714.027 7.16 714.162 7.664 714.162 8.224C714.162 8.868 713.975 9.45133 713.602 9.974C713.229 10.4873 712.673 10.842 711.936 11.038L714.274 15H712.006ZM708.926 9.722H710.564C711.096 9.722 711.493 9.596 711.754 9.344C712.015 9.08267 712.146 8.72333 712.146 8.266C712.146 7.818 712.015 7.47267 711.754 7.23C711.493 6.978 711.096 6.852 710.564 6.852H708.926V9.722ZM723.245 10.954C723.245 11.234 723.226 11.486 723.189 11.71H717.519C717.565 12.27 717.761 12.7087 718.107 13.026C718.452 13.3433 718.877 13.502 719.381 13.502C720.109 13.502 720.627 13.1893 720.935 12.564H723.049C722.825 13.3107 722.395 13.9267 721.761 14.412C721.126 14.888 720.347 15.126 719.423 15.126C718.676 15.126 718.004 14.9627 717.407 14.636C716.819 14.3 716.357 13.8287 716.021 13.222C715.694 12.6153 715.531 11.9153 715.531 11.122C715.531 10.3193 715.694 9.61467 716.021 9.008C716.347 8.40133 716.805 7.93467 717.393 7.608C717.981 7.28133 718.657 7.118 719.423 7.118C720.16 7.118 720.818 7.27667 721.397 7.594C721.985 7.91133 722.437 8.364 722.755 8.952C723.081 9.53067 723.245 10.198 723.245 10.954ZM721.215 10.394C721.205 9.89 721.023 9.48867 720.669 9.19C720.314 8.882 719.88 8.728 719.367 8.728C718.881 8.728 718.471 8.87733 718.135 9.176C717.808 9.46533 717.607 9.87133 717.533 10.394H721.215ZM724.271 11.094C724.271 10.31 724.425 9.61467 724.733 9.008C725.051 8.40133 725.48 7.93467 726.021 7.608C726.563 7.28133 727.165 7.118 727.827 7.118C728.331 7.118 728.812 7.23 729.269 7.454C729.727 7.66867 730.091 7.958 730.361 8.322V4.64H732.349V15H730.361V13.852C730.119 14.2347 729.778 14.5427 729.339 14.776C728.901 15.0093 728.392 15.126 727.813 15.126C727.16 15.126 726.563 14.958 726.021 14.622C725.48 14.286 725.051 13.8147 724.733 13.208C724.425 12.592 724.271 11.8873 724.271 11.094ZM730.375 11.122C730.375 10.646 730.282 10.24 730.095 9.904C729.909 9.55867 729.657 9.29733 729.339 9.12C729.022 8.93333 728.681 8.84 728.317 8.84C727.953 8.84 727.617 8.92867 727.309 9.106C727.001 9.28333 726.749 9.54467 726.553 9.89C726.367 10.226 726.273 10.6273 726.273 11.094C726.273 11.5607 726.367 11.9713 726.553 12.326C726.749 12.6713 727.001 12.9373 727.309 13.124C727.627 13.3107 727.963 13.404 728.317 13.404C728.681 13.404 729.022 13.3153 729.339 13.138C729.657 12.9513 729.909 12.69 730.095 12.354C730.282 12.0087 730.375 11.598 730.375 11.122ZM735.358 6.32C735.012 6.32 734.723 6.21267 734.49 5.998C734.266 5.774 734.154 5.49867 734.154 5.172C734.154 4.84533 734.266 4.57467 734.49 4.36C734.723 4.136 735.012 4.024 735.358 4.024C735.703 4.024 735.988 4.136 736.212 4.36C736.445 4.57467 736.562 4.84533 736.562 5.172C736.562 5.49867 736.445 5.774 736.212 5.998C735.988 6.21267 735.703 6.32 735.358 6.32ZM736.324 7.244V15H734.364V7.244H736.324ZM740.32 8.448C740.572 8.03733 740.899 7.71533 741.3 7.482C741.711 7.24867 742.177 7.132 742.7 7.132V9.19H742.182C741.566 9.19 741.099 9.33467 740.782 9.624C740.474 9.91333 740.32 10.4173 740.32 11.136V15H738.36V7.244H740.32V8.448ZM751.33 10.954C751.33 11.234 751.312 11.486 751.274 11.71H745.604C745.651 12.27 745.847 12.7087 746.192 13.026C746.538 13.3433 746.962 13.502 747.466 13.502C748.194 13.502 748.712 13.1893 749.02 12.564H751.134C750.91 13.3107 750.481 13.9267 749.846 14.412C749.212 14.888 748.432 15.126 747.508 15.126C746.762 15.126 746.09 14.9627 745.492 14.636C744.904 14.3 744.442 13.8287 744.106 13.222C743.78 12.6153 743.616 11.9153 743.616 11.122C743.616 10.3193 743.78 9.61467 744.106 9.008C744.433 8.40133 744.89 7.93467 745.478 7.608C746.066 7.28133 746.743 7.118 747.508 7.118C748.246 7.118 748.904 7.27667 749.482 7.594C750.07 7.91133 750.523 8.364 750.84 8.952C751.167 9.53067 751.33 10.198 751.33 10.954ZM749.3 10.394C749.291 9.89 749.109 9.48867 748.754 9.19C748.4 8.882 747.966 8.728 747.452 8.728C746.967 8.728 746.556 8.87733 746.22 9.176C745.894 9.46533 745.693 9.87133 745.618 10.394H749.3ZM752.357 11.122C752.357 10.3193 752.52 9.61933 752.847 9.022C753.174 8.41533 753.626 7.94867 754.205 7.622C754.784 7.286 755.446 7.118 756.193 7.118C757.154 7.118 757.948 7.36067 758.573 7.846C759.208 8.322 759.632 8.994 759.847 9.862H757.733C757.621 9.526 757.43 9.26467 757.159 9.078C756.898 8.882 756.571 8.784 756.179 8.784C755.619 8.784 755.176 8.98933 754.849 9.4C754.522 9.80133 754.359 10.3753 754.359 11.122C754.359 11.8593 754.522 12.4333 754.849 12.844C755.176 13.2453 755.619 13.446 756.179 13.446C756.972 13.446 757.49 13.0913 757.733 12.382H759.847C759.632 13.222 759.208 13.8893 758.573 14.384C757.938 14.8787 757.145 15.126 756.193 15.126C755.446 15.126 754.784 14.9627 754.205 14.636C753.626 14.3 753.174 13.8333 752.847 13.236C752.52 12.6293 752.357 11.9247 752.357 11.122ZM763.665 8.854V12.606C763.665 12.8673 763.725 13.0587 763.847 13.18C763.977 13.292 764.192 13.348 764.491 13.348H765.401V15H764.169C762.517 15 761.691 14.1973 761.691 12.592V8.854H760.767V7.244H761.691V5.326H763.665V7.244H765.401V8.854H763.665ZM772.306 4.64V15H770.346V4.64H772.306ZM777.787 15.126C777.04 15.126 776.368 14.9627 775.771 14.636C775.174 14.3 774.702 13.8287 774.357 13.222C774.021 12.6153 773.853 11.9153 773.853 11.122C773.853 10.3287 774.026 9.62867 774.371 9.022C774.726 8.41533 775.206 7.94867 775.813 7.622C776.42 7.286 777.096 7.118 777.843 7.118C778.59 7.118 779.266 7.286 779.873 7.622C780.48 7.94867 780.956 8.41533 781.301 9.022C781.656 9.62867 781.833 10.3287 781.833 11.122C781.833 11.9153 781.651 12.6153 781.287 13.222C780.932 13.8287 780.447 14.3 779.831 14.636C779.224 14.9627 778.543 15.126 777.787 15.126ZM777.787 13.418C778.142 13.418 778.473 13.334 778.781 13.166C779.098 12.9887 779.35 12.7273 779.537 12.382C779.724 12.0367 779.817 11.6167 779.817 11.122C779.817 10.3847 779.621 9.82 779.229 9.428C778.846 9.02667 778.375 8.826 777.815 8.826C777.255 8.826 776.784 9.02667 776.401 9.428C776.028 9.82 775.841 10.3847 775.841 11.122C775.841 11.8593 776.023 12.4287 776.387 12.83C776.76 13.222 777.227 13.418 777.787 13.418ZM790.791 7.244L785.989 18.668H783.903L785.583 14.804L782.475 7.244H784.673L786.675 12.662L788.705 7.244H790.791ZM792.941 6.32C792.596 6.32 792.307 6.21267 792.073 5.998C791.849 5.774 791.737 5.49867 791.737 5.172C791.737 4.84533 791.849 4.57467 792.073 4.36C792.307 4.136 792.596 4.024 792.941 4.024C793.287 4.024 793.571 4.136 793.795 4.36C794.029 4.57467 794.145 4.84533 794.145 5.172C794.145 5.49867 794.029 5.774 793.795 5.998C793.571 6.21267 793.287 6.32 792.941 6.32ZM793.907 7.244V15H791.947V7.244H793.907ZM800.312 7.132C800.9 7.132 801.422 7.26267 801.88 7.524C802.337 7.776 802.692 8.154 802.944 8.658C803.205 9.15267 803.336 9.75 803.336 10.45V15H801.376V10.716C801.376 10.1 801.222 9.62867 800.914 9.302C800.606 8.966 800.186 8.798 799.654 8.798C799.112 8.798 798.683 8.966 798.366 9.302C798.058 9.62867 797.904 10.1 797.904 10.716V15H795.944V4.64H797.904V8.21C798.156 7.874 798.492 7.61267 798.912 7.426C799.332 7.23 799.798 7.132 800.312 7.132ZM804.796 11.094C804.796 10.31 804.95 9.61467 805.258 9.008C805.575 8.40133 806 7.93467 806.532 7.608C807.073 7.28133 807.675 7.118 808.338 7.118C808.916 7.118 809.42 7.23467 809.85 7.468C810.288 7.70133 810.638 7.99533 810.9 8.35V7.244H812.874V15H810.9V13.866C810.648 14.23 810.298 14.5333 809.85 14.776C809.411 15.0093 808.902 15.126 808.324 15.126C807.67 15.126 807.073 14.958 806.532 14.622C806 14.286 805.575 13.8147 805.258 13.208C804.95 12.592 804.796 11.8873 804.796 11.094ZM810.9 11.122C810.9 10.646 810.806 10.24 810.62 9.904C810.433 9.55867 810.181 9.29733 809.864 9.12C809.546 8.93333 809.206 8.84 808.842 8.84C808.478 8.84 808.142 8.92867 807.834 9.106C807.526 9.28333 807.274 9.54467 807.078 9.89C806.891 10.226 806.798 10.6273 806.798 11.094C806.798 11.5607 806.891 11.9713 807.078 12.326C807.274 12.6713 807.526 12.9373 807.834 13.124C808.151 13.3107 808.487 13.404 808.842 13.404C809.206 13.404 809.546 13.3153 809.864 13.138C810.181 12.9513 810.433 12.69 810.62 12.354C810.806 12.0087 810.9 11.598 810.9 11.122ZM816.848 4.64V15H814.888V4.64H816.848ZM818.38 11.094C818.38 10.31 818.534 9.61467 818.842 9.008C819.16 8.40133 819.584 7.93467 820.116 7.608C820.658 7.28133 821.26 7.118 821.922 7.118C822.501 7.118 823.005 7.23467 823.434 7.468C823.873 7.70133 824.223 7.99533 824.484 8.35V7.244H826.458V15H824.484V13.866C824.232 14.23 823.882 14.5333 823.434 14.776C822.996 15.0093 822.487 15.126 821.908 15.126C821.255 15.126 820.658 14.958 820.116 14.622C819.584 14.286 819.16 13.8147 818.842 13.208C818.534 12.592 818.38 11.8873 818.38 11.094ZM824.484 11.122C824.484 10.646 824.391 10.24 824.204 9.904C824.018 9.55867 823.766 9.29733 823.448 9.12C823.131 8.93333 822.79 8.84 822.426 8.84C822.062 8.84 821.726 8.92867 821.418 9.106C821.11 9.28333 820.858 9.54467 820.662 9.89C820.476 10.226 820.382 10.6273 820.382 11.094C820.382 11.5607 820.476 11.9713 820.662 12.326C820.858 12.6713 821.11 12.9373 821.418 13.124C821.736 13.3107 822.072 13.404 822.426 13.404C822.79 13.404 823.131 13.3153 823.448 13.138C823.766 12.9513 824.018 12.69 824.204 12.354C824.391 12.0087 824.484 11.598 824.484 11.122ZM830.433 8.448C830.685 8.03733 831.011 7.71533 831.413 7.482C831.823 7.24867 832.29 7.132 832.813 7.132V9.19H832.295C831.679 9.19 831.212 9.33467 830.895 9.624C830.587 9.91333 830.433 10.4173 830.433 11.136V15H828.473V7.244H830.433V8.448ZM835.227 6.32C834.881 6.32 834.592 6.21267 834.359 5.998C834.135 5.774 834.023 5.49867 834.023 5.172C834.023 4.84533 834.135 4.57467 834.359 4.36C834.592 4.136 834.881 4.024 835.227 4.024C835.572 4.024 835.857 4.136 836.081 4.36C836.314 4.57467 836.431 4.84533 836.431 5.172C836.431 5.49867 836.314 5.774 836.081 5.998C835.857 6.21267 835.572 6.32 835.227 6.32ZM836.193 7.244V15H834.233V7.244H836.193Z" fill="#92929D"/>
</g>
<defs>
<clipPath id="clip0_1_313">
<rect width="72" height="21" fill="white"/>
</clipPath>
<clipPath id="clip1_1_313">
<rect width="131" height="21" fill="white" transform="translate(108)"/>
</clipPath>
<clipPath id="clip2_1_313">
<rect width="159" height="21" fill="white" transform="translate(275)"/>
</clipPath>
<clipPath id="clip3_1_313">
<rect width="176" height="21" fill="white" transform="translate(470)"/>
</clipPath>
<clipPath id="clip4_1_313">
<rect width="156" height="21" fill="white" transform="translate(682)"/>
</clipPath>
</defs>
</svg>
