<svg width="293" height="185" viewBox="0 0 293 185" fill="none" xmlns="http://www.w3.org/2000/svg">
<rect width="293" height="185" rx="20" fill="white"/>
<path d="M20 64.5761C20 64.5761 29.5789 62.4863 40.4695 67.5067C61.1828 77.0552 62.3644 59.5696 70.0451 51.1384C77.0721 43.4248 82.8918 48.1312 90.7158 57.5643C96.4864 64.5216 104.896 76.2003 113.606 74.3202C121.567 72.6015 127.211 58.9041 138.246 55.4206C146.992 52.6597 154.099 60.2446 164.171 57.5643C177.833 53.9282 179.868 40 189.632 40C201.684 40 209.232 64.8537 220.195 64.8537C231.094 64.8537 236.701 40.2842 248.623 47.7428C257.737 53.4449 266.5 64.5763 266.5 64.5763" stroke="#0062FF" stroke-width="3" stroke-linecap="round" stroke-linejoin="round"/>
<g filter="url(#filter0_d_1_629)">
<rect x="261" y="59.5225" width="12" height="12" rx="6" fill="#0062FF"/>
<rect x="262" y="60.5225" width="10" height="10" rx="5" stroke="white" stroke-width="2"/>
</g>
<path d="M25.9257 131.73C27.4617 130.45 28.6857 129.386 29.5977 128.538C30.5097 127.674 31.2697 126.778 31.8777 125.85C32.4857 124.922 32.7897 124.01 32.7897 123.114C32.7897 122.298 32.5977 121.658 32.2137 121.194C31.8297 120.73 31.2377 120.498 30.4377 120.498C29.6377 120.498 29.0217 120.77 28.5897 121.314C28.1577 121.842 27.9337 122.57 27.9177 123.498H24.6537C24.7177 121.578 25.2857 120.122 26.3577 119.13C27.4457 118.138 28.8217 117.642 30.4857 117.642C32.3097 117.642 33.7097 118.13 34.6857 119.106C35.6617 120.066 36.1497 121.338 36.1497 122.922C36.1497 124.17 35.8137 125.362 35.1417 126.498C34.4697 127.634 33.7017 128.626 32.8377 129.474C31.9737 130.306 30.8457 131.314 29.4537 132.498H36.5337V135.282H24.6777V132.786L25.9257 131.73ZM38.7989 122.634C38.8789 121.034 39.4389 119.802 40.4789 118.938C41.5349 118.058 42.9189 117.618 44.6309 117.618C45.7989 117.618 46.7989 117.826 47.6309 118.242C48.4629 118.642 49.0869 119.194 49.5029 119.898C49.9349 120.586 50.1509 121.37 50.1509 122.25C50.1509 123.258 49.8869 124.114 49.3589 124.818C48.8469 125.506 48.2309 125.97 47.5109 126.21V126.306C48.4389 126.594 49.1589 127.106 49.6709 127.842C50.1989 128.578 50.4629 129.522 50.4629 130.674C50.4629 131.634 50.2389 132.49 49.7909 133.242C49.3589 133.994 48.7109 134.586 47.8469 135.018C46.9989 135.434 45.9749 135.642 44.7749 135.642C42.9669 135.642 41.4949 135.186 40.3589 134.274C39.2229 133.362 38.6229 132.018 38.5589 130.242H41.8229C41.8549 131.026 42.1189 131.658 42.6149 132.138C43.1269 132.602 43.8229 132.834 44.7029 132.834C45.5189 132.834 46.1429 132.61 46.5749 132.162C47.0229 131.698 47.2469 131.106 47.2469 130.386C47.2469 129.426 46.9429 128.738 46.3349 128.322C45.7269 127.906 44.7829 127.698 43.5029 127.698H42.8069V124.938H43.5029C45.7749 124.938 46.9109 124.178 46.9109 122.658C46.9109 121.97 46.7029 121.434 46.2869 121.05C45.8869 120.666 45.3029 120.474 44.5349 120.474C43.7829 120.474 43.1989 120.682 42.7829 121.098C42.3829 121.498 42.1509 122.01 42.0869 122.634H38.7989ZM53.0741 132.114V129.474L60.9221 118.242H64.8341V129.186H66.9461V132.114H64.8341V135.522H61.4741V132.114H53.0741ZM61.6901 121.842L56.7701 129.186H61.6901V121.842ZM79.3 124.986V131.418C79.3 131.866 79.404 132.194 79.612 132.402C79.836 132.594 80.204 132.69 80.716 132.69H82.276V135.522H80.164C77.332 135.522 75.916 134.146 75.916 131.394V124.986H74.332V122.226H75.916V118.938H79.3V122.226H82.276V124.986H79.3ZM83.9287 128.826C83.9287 127.482 84.1927 126.29 84.7207 125.25C85.2647 124.21 85.9927 123.41 86.9047 122.85C87.8327 122.29 88.8647 122.01 90.0007 122.01C90.9927 122.01 91.8567 122.21 92.5927 122.61C93.3447 123.01 93.9447 123.514 94.3927 124.122V122.226H97.7767V135.522H94.3927V133.578C93.9607 134.202 93.3607 134.722 92.5927 135.138C91.8407 135.538 90.9687 135.738 89.9767 135.738C88.8567 135.738 87.8327 135.45 86.9047 134.874C85.9927 134.298 85.2647 133.49 84.7207 132.45C84.1927 131.394 83.9287 130.186 83.9287 128.826ZM94.3927 128.874C94.3927 128.058 94.2327 127.362 93.9127 126.786C93.5927 126.194 93.1607 125.746 92.6167 125.442C92.0727 125.122 91.4887 124.962 90.8647 124.962C90.2407 124.962 89.6647 125.114 89.1367 125.418C88.6087 125.722 88.1767 126.17 87.8407 126.762C87.5207 127.338 87.3607 128.026 87.3607 128.826C87.3607 129.626 87.5207 130.33 87.8407 130.938C88.1767 131.53 88.6087 131.986 89.1367 132.306C89.6807 132.626 90.2567 132.786 90.8647 132.786C91.4887 132.786 92.0727 132.634 92.6167 132.33C93.1607 132.01 93.5927 131.562 93.9127 130.986C94.2327 130.394 94.3927 129.69 94.3927 128.874Z" fill="#171725"/>
<path d="M24.457 148.022H25.7285V157.087L25.6191 158.522H24.457V148.022ZM30.7256 154.763V154.906C30.7256 155.444 30.6618 155.943 30.5342 156.403C30.4066 156.859 30.2197 157.256 29.9736 157.593C29.7275 157.93 29.4268 158.192 29.0713 158.379C28.7158 158.566 28.3079 158.659 27.8477 158.659C27.3783 158.659 26.9658 158.579 26.6104 158.42C26.2594 158.256 25.9632 158.021 25.7217 157.716C25.4801 157.41 25.2865 157.041 25.1406 156.608C24.9993 156.175 24.9014 155.688 24.8467 155.146V154.517C24.9014 153.97 24.9993 153.48 25.1406 153.047C25.2865 152.614 25.4801 152.245 25.7217 151.939C25.9632 151.63 26.2594 151.395 26.6104 151.235C26.9613 151.071 27.3691 150.989 27.834 150.989C28.2988 150.989 28.7113 151.08 29.0713 151.263C29.4313 151.44 29.7321 151.696 29.9736 152.028C30.2197 152.361 30.4066 152.76 30.5342 153.225C30.6618 153.685 30.7256 154.198 30.7256 154.763ZM29.4541 154.906V154.763C29.4541 154.394 29.4199 154.047 29.3516 153.724C29.2832 153.396 29.1738 153.108 29.0234 152.862C28.873 152.612 28.6748 152.416 28.4287 152.274C28.1826 152.129 27.8796 152.056 27.5195 152.056C27.2005 152.056 26.9225 152.11 26.6855 152.22C26.4531 152.329 26.2549 152.477 26.0908 152.664C25.9268 152.846 25.7923 153.056 25.6875 153.293C25.5872 153.525 25.512 153.767 25.4619 154.018V155.665C25.5348 155.984 25.6533 156.292 25.8174 156.588C25.986 156.88 26.2093 157.119 26.4873 157.306C26.7699 157.493 27.1185 157.586 27.5332 157.586C27.875 157.586 28.1667 157.518 28.4082 157.381C28.6543 157.24 28.8525 157.046 29.0029 156.8C29.1579 156.554 29.2718 156.269 29.3447 155.945C29.4176 155.622 29.4541 155.275 29.4541 154.906ZM36.9506 156.813V151.126H38.2221V158.522H37.0121L36.9506 156.813ZM37.1898 155.255L37.7162 155.241C37.7162 155.733 37.6638 156.189 37.559 156.608C37.4587 157.023 37.2947 157.383 37.0668 157.688C36.8389 157.994 36.5404 158.233 36.1713 158.406C35.8021 158.575 35.3533 158.659 34.8246 158.659C34.4646 158.659 34.1342 158.607 33.8334 158.502C33.5372 158.397 33.282 158.235 33.0678 158.017C32.8536 157.798 32.6872 157.513 32.5687 157.162C32.4548 156.811 32.3979 156.39 32.3979 155.897V151.126H33.6625V155.911C33.6625 156.244 33.699 156.52 33.7719 156.738C33.8493 156.952 33.9519 157.123 34.0795 157.251C34.2117 157.374 34.3575 157.461 34.517 157.511C34.6811 157.561 34.8497 157.586 35.0229 157.586C35.5606 157.586 35.9867 157.483 36.3012 157.278C36.6156 157.069 36.8412 156.788 36.9779 156.438C37.1192 156.082 37.1898 155.688 37.1898 155.255ZM43.4875 154.906V154.749C43.4875 154.216 43.565 153.721 43.7199 153.266C43.8749 152.805 44.0982 152.407 44.3898 152.069C44.6815 151.728 45.0347 151.463 45.4494 151.276C45.8641 151.085 46.329 150.989 46.8439 150.989C47.3635 150.989 47.8306 151.085 48.2453 151.276C48.6646 151.463 49.0201 151.728 49.3117 152.069C49.6079 152.407 49.8335 152.805 49.9885 153.266C50.1434 153.721 50.2209 154.216 50.2209 154.749V154.906C50.2209 155.439 50.1434 155.934 49.9885 156.39C49.8335 156.845 49.6079 157.244 49.3117 157.586C49.0201 157.923 48.6669 158.188 48.2521 158.379C47.842 158.566 47.3771 158.659 46.8576 158.659C46.3381 158.659 45.871 158.566 45.4562 158.379C45.0415 158.188 44.6861 157.923 44.3898 157.586C44.0982 157.244 43.8749 156.845 43.7199 156.39C43.565 155.934 43.4875 155.439 43.4875 154.906ZM44.7521 154.749V154.906C44.7521 155.275 44.7954 155.624 44.882 155.952C44.9686 156.276 45.0985 156.563 45.2717 156.813C45.4494 157.064 45.6704 157.262 45.9348 157.408C46.1991 157.549 46.5067 157.62 46.8576 157.62C47.204 157.62 47.507 157.549 47.7668 157.408C48.0311 157.262 48.2499 157.064 48.423 156.813C48.5962 156.563 48.7261 156.276 48.8127 155.952C48.9038 155.624 48.9494 155.275 48.9494 154.906V154.749C48.9494 154.384 48.9038 154.04 48.8127 153.717C48.7261 153.389 48.5939 153.099 48.4162 152.849C48.243 152.593 48.0243 152.393 47.76 152.247C47.5002 152.101 47.1949 152.028 46.8439 152.028C46.4976 152.028 46.1923 152.101 45.9279 152.247C45.6682 152.393 45.4494 152.593 45.2717 152.849C45.0985 153.099 44.9686 153.389 44.882 153.717C44.7954 154.04 44.7521 154.384 44.7521 154.749ZM53.8756 157.757L55.9332 151.126H57.2867L54.3199 159.664C54.2516 159.846 54.1604 160.042 54.0465 160.252C53.9371 160.466 53.7958 160.669 53.6227 160.86C53.4495 161.052 53.2398 161.207 52.9937 161.325C52.7522 161.448 52.4628 161.51 52.1256 161.51C52.0253 161.51 51.8977 161.496 51.7428 161.469C51.5878 161.441 51.4785 161.419 51.4146 161.4L51.4078 160.375C51.4443 160.38 51.5012 160.384 51.5787 160.389C51.6607 160.398 51.7177 160.402 51.7496 160.402C52.0367 160.402 52.2805 160.364 52.4811 160.286C52.6816 160.213 52.8502 160.088 52.9869 159.91C53.1282 159.737 53.249 159.498 53.3492 159.192L53.8756 157.757ZM52.3648 151.126L54.2857 156.868L54.6139 158.201L53.7047 158.666L50.984 151.126H52.3648ZM63.2246 151.126H64.373V158.365C64.373 159.017 64.2409 159.573 63.9766 160.033C63.7122 160.493 63.3431 160.842 62.8691 161.079C62.3997 161.321 61.8574 161.441 61.2422 161.441C60.987 161.441 60.6862 161.4 60.3398 161.318C59.998 161.241 59.6608 161.106 59.3281 160.915C59 160.728 58.7243 160.475 58.501 160.156L59.1641 159.404C59.474 159.778 59.7975 160.038 60.1348 160.184C60.4766 160.329 60.8138 160.402 61.1465 160.402C61.5475 160.402 61.8939 160.327 62.1855 160.177C62.4772 160.026 62.7028 159.803 62.8623 159.507C63.0264 159.215 63.1084 158.855 63.1084 158.427V152.753L63.2246 151.126ZM58.1318 154.906V154.763C58.1318 154.198 58.1979 153.685 58.3301 153.225C58.4668 152.76 58.6605 152.361 58.9111 152.028C59.1663 151.696 59.474 151.44 59.834 151.263C60.194 151.08 60.5996 150.989 61.0508 150.989C61.5156 150.989 61.9212 151.071 62.2676 151.235C62.6185 151.395 62.9147 151.63 63.1562 151.939C63.4023 152.245 63.596 152.614 63.7373 153.047C63.8786 153.48 63.9766 153.97 64.0312 154.517V155.146C63.9811 155.688 63.8831 156.175 63.7373 156.608C63.596 157.041 63.4023 157.41 63.1562 157.716C62.9147 158.021 62.6185 158.256 62.2676 158.42C61.9167 158.579 61.5065 158.659 61.0371 158.659C60.5951 158.659 60.194 158.566 59.834 158.379C59.4785 158.192 59.1732 157.93 58.918 157.593C58.6628 157.256 58.4668 156.859 58.3301 156.403C58.1979 155.943 58.1318 155.444 58.1318 154.906ZM59.3965 154.763V154.906C59.3965 155.275 59.4329 155.622 59.5059 155.945C59.5833 156.269 59.6995 156.554 59.8545 156.8C60.014 157.046 60.2168 157.24 60.4629 157.381C60.709 157.518 61.0029 157.586 61.3447 157.586C61.764 157.586 62.1104 157.497 62.3838 157.319C62.6572 157.142 62.8737 156.907 63.0332 156.615C63.1973 156.324 63.3249 156.007 63.416 155.665V154.018C63.3659 153.767 63.2884 153.525 63.1836 153.293C63.0833 153.056 62.9512 152.846 62.7871 152.664C62.6276 152.477 62.4294 152.329 62.1924 152.22C61.9554 152.11 61.6774 152.056 61.3584 152.056C61.012 152.056 60.7135 152.129 60.4629 152.274C60.2168 152.416 60.014 152.612 59.8545 152.862C59.6995 153.108 59.5833 153.396 59.5059 153.724C59.4329 154.047 59.3965 154.394 59.3965 154.763ZM67.768 151.126V158.522H66.4965V151.126H67.768ZM66.4008 149.164C66.4008 148.959 66.4623 148.786 66.5854 148.645C66.713 148.503 66.8998 148.433 67.1459 148.433C67.3874 148.433 67.572 148.503 67.6996 148.645C67.8318 148.786 67.8979 148.959 67.8979 149.164C67.8979 149.36 67.8318 149.529 67.6996 149.67C67.572 149.807 67.3874 149.875 67.1459 149.875C66.8998 149.875 66.713 149.807 66.5854 149.67C66.4623 149.529 66.4008 149.36 66.4008 149.164ZM75.3576 158.522H74.093V150.347C74.093 149.813 74.1887 149.365 74.3801 149C74.576 148.631 74.8563 148.353 75.2209 148.166C75.5855 147.975 76.0184 147.879 76.5197 147.879C76.6656 147.879 76.8114 147.888 76.9572 147.906C77.1076 147.924 77.2534 147.952 77.3947 147.988L77.3264 149.021C77.2307 148.998 77.1213 148.982 76.9982 148.973C76.8798 148.964 76.7613 148.959 76.6428 148.959C76.3739 148.959 76.1415 149.014 75.9455 149.123C75.7541 149.228 75.6083 149.383 75.508 149.588C75.4077 149.793 75.3576 150.046 75.3576 150.347V158.522ZM76.9299 151.126V152.097H72.924V151.126H76.9299ZM81.3434 158.659C80.8284 158.659 80.3613 158.573 79.942 158.399C79.5273 158.222 79.1695 157.973 78.8688 157.654C78.5725 157.335 78.3447 156.957 78.1852 156.52C78.0257 156.082 77.9459 155.604 77.9459 155.084V154.797C77.9459 154.195 78.0348 153.66 78.2125 153.19C78.3902 152.716 78.6318 152.315 78.9371 151.987C79.2424 151.659 79.5888 151.411 79.9762 151.242C80.3635 151.074 80.7646 150.989 81.1793 150.989C81.7079 150.989 82.1637 151.08 82.5465 151.263C82.9339 151.445 83.2506 151.7 83.4967 152.028C83.7428 152.352 83.9251 152.735 84.0436 153.177C84.162 153.614 84.2213 154.093 84.2213 154.612V155.18H78.6979V154.147H82.9566V154.052C82.9384 153.724 82.8701 153.405 82.7516 153.095C82.6376 152.785 82.4553 152.53 82.2047 152.329C81.954 152.129 81.6122 152.028 81.1793 152.028C80.8922 152.028 80.6279 152.09 80.3863 152.213C80.1448 152.331 79.9374 152.509 79.7643 152.746C79.5911 152.983 79.4566 153.272 79.3609 153.614C79.2652 153.956 79.2174 154.35 79.2174 154.797V155.084C79.2174 155.435 79.2652 155.765 79.3609 156.075C79.4612 156.381 79.6048 156.649 79.7916 156.882C79.983 157.114 80.2132 157.297 80.482 157.429C80.7555 157.561 81.0654 157.627 81.4117 157.627C81.8583 157.627 82.2366 157.536 82.5465 157.354C82.8564 157.171 83.1275 156.927 83.36 156.622L84.1256 157.23C83.9661 157.472 83.7633 157.702 83.5172 157.921C83.2711 158.14 82.968 158.317 82.608 158.454C82.2525 158.591 81.831 158.659 81.3434 158.659ZM88.8672 158.659C88.3522 158.659 87.8851 158.573 87.4658 158.399C87.0511 158.222 86.6934 157.973 86.3926 157.654C86.0964 157.335 85.8685 156.957 85.709 156.52C85.5495 156.082 85.4697 155.604 85.4697 155.084V154.797C85.4697 154.195 85.5586 153.66 85.7363 153.19C85.9141 152.716 86.1556 152.315 86.4609 151.987C86.7663 151.659 87.1126 151.411 87.5 151.242C87.8874 151.074 88.2884 150.989 88.7031 150.989C89.2318 150.989 89.6875 151.08 90.0703 151.263C90.4577 151.445 90.7744 151.7 91.0205 152.028C91.2666 152.352 91.4489 152.735 91.5674 153.177C91.6859 153.614 91.7451 154.093 91.7451 154.612V155.18H86.2217V154.147H90.4805V154.052C90.4622 153.724 90.3939 153.405 90.2754 153.095C90.1615 152.785 89.9792 152.53 89.7285 152.329C89.4779 152.129 89.1361 152.028 88.7031 152.028C88.416 152.028 88.1517 152.09 87.9102 152.213C87.6686 152.331 87.4613 152.509 87.2881 152.746C87.1149 152.983 86.9805 153.272 86.8848 153.614C86.7891 153.956 86.7412 154.35 86.7412 154.797V155.084C86.7412 155.435 86.7891 155.765 86.8848 156.075C86.985 156.381 87.1286 156.649 87.3154 156.882C87.5068 157.114 87.737 157.297 88.0059 157.429C88.2793 157.561 88.5892 157.627 88.9355 157.627C89.3822 157.627 89.7604 157.536 90.0703 157.354C90.3802 157.171 90.6514 156.927 90.8838 156.622L91.6494 157.23C91.4899 157.472 91.2871 157.702 91.041 157.921C90.7949 158.14 90.4919 158.317 90.1318 158.454C89.7764 158.591 89.3548 158.659 88.8672 158.659ZM97.9838 157.087V148.022H99.2553V158.522H98.0932L97.9838 157.087ZM93.0072 154.906V154.763C93.0072 154.198 93.0756 153.685 93.2123 153.225C93.3536 152.76 93.5518 152.361 93.807 152.028C94.0668 151.696 94.3744 151.44 94.7299 151.263C95.0899 151.08 95.4909 150.989 95.933 150.989C96.3979 150.989 96.8034 151.071 97.1498 151.235C97.5007 151.395 97.7969 151.63 98.0385 151.939C98.2846 152.245 98.4783 152.614 98.6195 153.047C98.7608 153.48 98.8588 153.97 98.9135 154.517V155.146C98.8633 155.688 98.7654 156.175 98.6195 156.608C98.4783 157.041 98.2846 157.41 98.0385 157.716C97.7969 158.021 97.5007 158.256 97.1498 158.42C96.7989 158.579 96.3887 158.659 95.9193 158.659C95.4864 158.659 95.0899 158.566 94.7299 158.379C94.3744 158.192 94.0668 157.93 93.807 157.593C93.5518 157.256 93.3536 156.859 93.2123 156.403C93.0756 155.943 93.0072 155.444 93.0072 154.906ZM94.2787 154.763V154.906C94.2787 155.275 94.3152 155.622 94.3881 155.945C94.4656 156.269 94.584 156.554 94.7436 156.8C94.9031 157.046 95.1059 157.24 95.352 157.381C95.598 157.518 95.892 157.586 96.2338 157.586C96.6531 157.586 96.9971 157.497 97.266 157.319C97.5395 157.142 97.7582 156.907 97.9223 156.615C98.0863 156.324 98.2139 156.007 98.3051 155.665V154.018C98.2504 153.767 98.1706 153.525 98.0658 153.293C97.9656 153.056 97.8334 152.846 97.6693 152.664C97.5098 152.477 97.3116 152.329 97.0746 152.22C96.8422 152.11 96.5665 152.056 96.2475 152.056C95.9011 152.056 95.6026 152.129 95.352 152.274C95.1059 152.416 94.9031 152.612 94.7436 152.862C94.584 153.108 94.4656 153.396 94.3881 153.724C94.3152 154.047 94.2787 154.394 94.2787 154.763ZM101.317 148.022H102.589V157.087L102.479 158.522H101.317V148.022ZM107.586 154.763V154.906C107.586 155.444 107.522 155.943 107.394 156.403C107.267 156.859 107.08 157.256 106.834 157.593C106.588 157.93 106.287 158.192 105.931 158.379C105.576 158.566 105.168 158.659 104.708 158.659C104.238 158.659 103.826 158.579 103.471 158.42C103.12 158.256 102.823 158.021 102.582 157.716C102.34 157.41 102.147 157.041 102.001 156.608C101.86 156.175 101.762 155.688 101.707 155.146V154.517C101.762 153.97 101.86 153.48 102.001 153.047C102.147 152.614 102.34 152.245 102.582 151.939C102.823 151.63 103.12 151.395 103.471 151.235C103.821 151.071 104.229 150.989 104.694 150.989C105.159 150.989 105.571 151.08 105.931 151.263C106.291 151.44 106.592 151.696 106.834 152.028C107.08 152.361 107.267 152.76 107.394 153.225C107.522 153.685 107.586 154.198 107.586 154.763ZM106.314 154.906V154.763C106.314 154.394 106.28 154.047 106.212 153.724C106.143 153.396 106.034 153.108 105.884 152.862C105.733 152.612 105.535 152.416 105.289 152.274C105.043 152.129 104.74 152.056 104.38 152.056C104.061 152.056 103.783 152.11 103.546 152.22C103.313 152.329 103.115 152.477 102.951 152.664C102.787 152.846 102.652 153.056 102.548 153.293C102.447 153.525 102.372 153.767 102.322 154.018V155.665C102.395 155.984 102.513 156.292 102.678 156.588C102.846 156.88 103.069 157.119 103.347 157.306C103.63 157.493 103.979 157.586 104.393 157.586C104.735 157.586 105.027 157.518 105.268 157.381C105.514 157.24 105.713 157.046 105.863 156.8C106.018 156.554 106.132 156.269 106.205 155.945C106.278 155.622 106.314 155.275 106.314 154.906ZM113.647 157.258V153.45C113.647 153.159 113.587 152.906 113.469 152.691C113.355 152.473 113.182 152.304 112.949 152.186C112.717 152.067 112.43 152.008 112.088 152.008C111.769 152.008 111.489 152.062 111.247 152.172C111.01 152.281 110.823 152.425 110.687 152.603C110.555 152.78 110.488 152.972 110.488 153.177H109.224C109.224 152.912 109.292 152.65 109.429 152.391C109.566 152.131 109.762 151.896 110.017 151.687C110.277 151.472 110.586 151.304 110.946 151.181C111.311 151.053 111.717 150.989 112.163 150.989C112.701 150.989 113.175 151.08 113.585 151.263C114 151.445 114.323 151.721 114.556 152.09C114.793 152.454 114.911 152.912 114.911 153.464V156.909C114.911 157.155 114.932 157.417 114.973 157.695C115.018 157.973 115.085 158.213 115.171 158.413V158.522H113.852C113.788 158.377 113.738 158.183 113.701 157.941C113.665 157.695 113.647 157.467 113.647 157.258ZM113.865 154.038L113.879 154.927H112.601C112.241 154.927 111.919 154.956 111.637 155.016C111.354 155.07 111.117 155.155 110.926 155.269C110.735 155.382 110.589 155.526 110.488 155.699C110.388 155.868 110.338 156.066 110.338 156.294C110.338 156.526 110.39 156.738 110.495 156.93C110.6 157.121 110.757 157.274 110.967 157.388C111.181 157.497 111.443 157.552 111.753 157.552C112.14 157.552 112.482 157.47 112.779 157.306C113.075 157.142 113.309 156.941 113.483 156.704C113.66 156.467 113.756 156.237 113.77 156.014L114.31 156.622C114.278 156.813 114.191 157.025 114.05 157.258C113.909 157.49 113.72 157.714 113.483 157.928C113.25 158.137 112.972 158.313 112.649 158.454C112.33 158.591 111.97 158.659 111.569 158.659C111.067 158.659 110.627 158.561 110.249 158.365C109.876 158.169 109.584 157.907 109.374 157.579C109.169 157.246 109.067 156.875 109.067 156.465C109.067 156.068 109.144 155.72 109.299 155.419C109.454 155.114 109.677 154.861 109.969 154.66C110.261 154.455 110.612 154.3 111.022 154.195C111.432 154.09 111.89 154.038 112.396 154.038H113.865ZM119.961 157.62C120.261 157.62 120.539 157.559 120.795 157.436C121.05 157.312 121.259 157.144 121.423 156.93C121.588 156.711 121.681 156.463 121.704 156.185H122.907C122.884 156.622 122.736 157.03 122.463 157.408C122.194 157.782 121.84 158.085 121.403 158.317C120.965 158.545 120.485 158.659 119.961 158.659C119.405 158.659 118.919 158.561 118.504 158.365C118.094 158.169 117.753 157.9 117.479 157.559C117.21 157.217 117.007 156.825 116.871 156.383C116.739 155.936 116.672 155.465 116.672 154.968V154.681C116.672 154.184 116.739 153.715 116.871 153.272C117.007 152.826 117.21 152.432 117.479 152.09C117.753 151.748 118.094 151.479 118.504 151.283C118.919 151.087 119.405 150.989 119.961 150.989C120.539 150.989 121.045 151.108 121.478 151.345C121.911 151.577 122.251 151.896 122.497 152.302C122.747 152.703 122.884 153.159 122.907 153.669H121.704C121.681 153.364 121.594 153.088 121.444 152.842C121.298 152.596 121.098 152.4 120.842 152.254C120.592 152.104 120.298 152.028 119.961 152.028C119.573 152.028 119.247 152.106 118.983 152.261C118.723 152.411 118.516 152.616 118.361 152.876C118.211 153.131 118.101 153.416 118.033 153.73C117.969 154.04 117.937 154.357 117.937 154.681V154.968C117.937 155.291 117.969 155.61 118.033 155.925C118.097 156.239 118.204 156.524 118.354 156.779C118.509 157.035 118.716 157.24 118.976 157.395C119.24 157.545 119.569 157.62 119.961 157.62ZM125.7 148.022V158.522H124.429V148.022H125.7ZM130.219 151.126L126.992 154.578L125.188 156.451L125.085 155.104L126.377 153.56L128.674 151.126H130.219ZM129.063 158.522L126.425 154.995L127.081 153.867L130.554 158.522H129.063ZM132.998 148.022V158.522H131.727V148.022H132.998ZM139.49 157.258V153.45C139.49 153.159 139.431 152.906 139.312 152.691C139.198 152.473 139.025 152.304 138.793 152.186C138.56 152.067 138.273 152.008 137.931 152.008C137.612 152.008 137.332 152.062 137.091 152.172C136.854 152.281 136.667 152.425 136.53 152.603C136.398 152.78 136.332 152.972 136.332 153.177H135.067C135.067 152.912 135.136 152.65 135.272 152.391C135.409 152.131 135.605 151.896 135.86 151.687C136.12 151.472 136.43 151.304 136.79 151.181C137.154 151.053 137.56 150.989 138.007 150.989C138.544 150.989 139.018 151.08 139.429 151.263C139.843 151.445 140.167 151.721 140.399 152.09C140.636 152.454 140.755 152.912 140.755 153.464V156.909C140.755 157.155 140.775 157.417 140.816 157.695C140.862 157.973 140.928 158.213 141.014 158.413V158.522H139.695C139.631 158.377 139.581 158.183 139.545 157.941C139.508 157.695 139.49 157.467 139.49 157.258ZM139.709 154.038L139.722 154.927H138.444C138.084 154.927 137.763 154.956 137.48 155.016C137.198 155.07 136.961 155.155 136.769 155.269C136.578 155.382 136.432 155.526 136.332 155.699C136.232 155.868 136.181 156.066 136.181 156.294C136.181 156.526 136.234 156.738 136.339 156.93C136.443 157.121 136.601 157.274 136.81 157.388C137.025 157.497 137.287 157.552 137.596 157.552C137.984 157.552 138.326 157.47 138.622 157.306C138.918 157.142 139.153 156.941 139.326 156.704C139.504 156.467 139.599 156.237 139.613 156.014L140.153 156.622C140.121 156.813 140.035 157.025 139.893 157.258C139.752 157.49 139.563 157.714 139.326 157.928C139.094 158.137 138.816 158.313 138.492 158.454C138.173 158.591 137.813 158.659 137.412 158.659C136.911 158.659 136.471 158.561 136.093 158.365C135.719 158.169 135.427 157.907 135.218 157.579C135.012 157.246 134.91 156.875 134.91 156.465C134.91 156.068 134.987 155.72 135.142 155.419C135.297 155.114 135.521 154.861 135.812 154.66C136.104 154.455 136.455 154.3 136.865 154.195C137.275 154.09 137.733 154.038 138.239 154.038H139.709ZM144.109 152.288V158.522H142.844V151.126H144.074L144.109 152.288ZM146.419 151.085L146.412 152.261C146.307 152.238 146.207 152.224 146.112 152.22C146.02 152.211 145.916 152.206 145.797 152.206C145.505 152.206 145.248 152.252 145.025 152.343C144.801 152.434 144.612 152.562 144.457 152.726C144.302 152.89 144.179 153.086 144.088 153.313C144.002 153.537 143.945 153.783 143.917 154.052L143.562 154.257C143.562 153.81 143.605 153.391 143.692 152.999C143.783 152.607 143.922 152.261 144.109 151.96C144.295 151.655 144.532 151.418 144.82 151.249C145.111 151.076 145.458 150.989 145.859 150.989C145.95 150.989 146.055 151.001 146.173 151.023C146.292 151.042 146.374 151.062 146.419 151.085Z" fill="#696974"/>
<path d="M219.788 127.522V118.226H218.092V116.162H222.092V127.522H219.788ZM226.973 126.242C226.973 126.605 226.845 126.909 226.589 127.154C226.344 127.4 226.04 127.522 225.677 127.522C225.325 127.522 225.026 127.4 224.781 127.154C224.536 126.909 224.413 126.605 224.413 126.242C224.413 125.88 224.536 125.576 224.781 125.33C225.026 125.085 225.325 124.962 225.677 124.962C226.04 124.962 226.344 125.085 226.589 125.33C226.845 125.576 226.973 125.88 226.973 126.242ZM229.203 115.826H236.355V117.794H231.251V120.45C231.475 120.205 231.784 120.002 232.179 119.842C232.574 119.672 233.054 119.586 233.619 119.586C234.184 119.586 234.718 119.704 235.219 119.938C235.731 120.173 236.12 120.488 236.387 120.882C236.92 121.65 237.187 122.504 237.187 123.442C237.187 124.68 236.83 125.672 236.115 126.418C235.411 127.154 234.43 127.522 233.171 127.522C231.912 127.522 230.92 127.229 230.195 126.642C229.48 126.045 229.059 125.266 228.931 124.306H231.139C231.235 124.722 231.454 125.053 231.795 125.298C232.147 125.544 232.611 125.666 233.187 125.666C233.774 125.666 234.227 125.469 234.547 125.074C234.867 124.68 235.027 124.157 235.027 123.506C235.027 122.856 234.862 122.354 234.531 122.002C234.211 121.65 233.779 121.474 233.235 121.474C232.211 121.474 231.582 121.885 231.347 122.706H229.203V115.826ZM248.16 125.122C248.16 124.301 247.861 123.89 247.264 123.89C246.666 123.89 246.368 124.301 246.368 125.122C246.368 125.933 246.666 126.338 247.264 126.338C247.861 126.338 248.16 125.933 248.16 125.122ZM247.28 127.682C246.533 127.682 245.92 127.458 245.44 127.01C244.97 126.552 244.736 125.922 244.736 125.122C244.736 124.312 244.97 123.682 245.44 123.234C245.92 122.776 246.528 122.546 247.264 122.546C248.01 122.546 248.618 122.776 249.088 123.234C249.568 123.682 249.808 124.312 249.808 125.122C249.808 125.922 249.573 126.552 249.104 127.01C248.634 127.458 248.026 127.682 247.28 127.682ZM240.032 127.522L246.304 116.322H248.496L242.208 127.522H240.032ZM242.16 118.738C242.16 117.917 241.856 117.506 241.248 117.506C240.65 117.506 240.352 117.917 240.352 118.738C240.352 119.549 240.65 119.954 241.248 119.954C241.856 119.954 242.16 119.549 242.16 118.738ZM239.424 120.61C238.954 120.152 238.72 119.522 238.72 118.722C238.72 117.922 238.954 117.298 239.424 116.85C239.904 116.392 240.512 116.162 241.248 116.162C241.994 116.162 242.602 116.392 243.072 116.85C243.552 117.298 243.792 117.922 243.792 118.722C243.792 119.522 243.557 120.152 243.088 120.61C242.618 121.069 242.01 121.298 241.264 121.298C240.517 121.298 239.904 121.069 239.424 120.61Z" fill="#FC5A5A"/>
<path fill-rule="evenodd" clip-rule="evenodd" d="M261.497 128.522C261.311 128.523 261.125 128.447 260.991 128.294L256.331 122.961C256.089 122.684 256.117 122.263 256.395 122.02C256.672 121.778 257.093 121.807 257.335 122.084L260.833 126.087V117.189C260.833 116.821 261.132 116.522 261.5 116.522C261.868 116.522 262.167 116.821 262.167 117.189V126.076L265.665 122.083C265.908 121.806 266.329 121.778 266.606 122.021C266.883 122.264 266.911 122.685 266.668 122.962L262.052 128.23C261.932 128.407 261.729 128.522 261.5 128.522C261.499 128.522 261.498 128.522 261.497 128.522Z" fill="#FC5A5A"/>
<defs>
<filter id="filter0_d_1_629" x="257" y="57.5225" width="20" height="20" filterUnits="userSpaceOnUse" color-interpolation-filters="sRGB">
<feFlood flood-opacity="0" result="BackgroundImageFix"/>
<feColorMatrix in="SourceAlpha" type="matrix" values="0 0 0 0 0 0 0 0 0 0 0 0 0 0 0 0 0 0 127 0" result="hardAlpha"/>
<feOffset dy="2"/>
<feGaussianBlur stdDeviation="2"/>
<feColorMatrix type="matrix" values="0 0 0 0 0.268354 0 0 0 0 0.268354 0 0 0 0 0.31049 0 0 0 0.15 0"/>
<feBlend mode="normal" in2="BackgroundImageFix" result="effect1_dropShadow_1_629"/>
<feBlend mode="normal" in="SourceGraphic" in2="effect1_dropShadow_1_629" result="shape"/>
</filter>
</defs>
</svg>
